<svg width="140" height="45" viewBox="0 0 140 45" fill="none" xmlns="http://www.w3.org/2000/svg">
<g clip-path="url(#clip0_1_31)">
<g clip-path="url(#clip1_1_31)">
<g clip-path="url(#clip2_1_31)">
<path d="M30.1286 3.14661L28.9901 -0.00341797H16.2871L0.0224609 44.9799H11.494L19.3409 21.7148C17.7476 19.3913 16.6522 15.2986 19.1782 8.26831L20.174 5.50996L22.4975 7.3223C22.7066 7.48163 26.9155 10.9005 26.172 18.6478C26.8558 18.2096 27.5661 17.8014 28.3063 17.4097C26.7728 15.1891 25.3455 10.6449 30.1286 3.14661ZM40.3255 31.3309L38.5829 26.5146C37.7186 26.6591 36.8436 26.7302 35.9673 26.727C33.813 26.6998 31.6746 26.3553 29.6208 25.7047L28.9005 25.4856C28.4391 25.8972 27.981 26.332 27.5362 26.7967L27.5728 26.883C28.1113 26.8175 28.6534 26.7854 29.1959 26.7867C31.3966 26.7867 33.906 27.2913 36.6577 28.2771L39.4194 29.2729L37.607 31.5964C37.5041 31.7292 35.2835 34.5008 30.3709 35.1946L30.9551 36.9206L33.6803 45.0098H45.2647L40.3255 31.3309Z" fill="#EDDD5E"/>
<path d="M35.9307 30.259C35.9307 30.259 32.0969 35.1384 22.5107 32.3501C22.5107 32.3501 24.7745 26.2459 35.9307 30.259Z" fill="white"/>
<path d="M21.1692 8.98535C21.1692 8.98535 26.0486 12.8192 23.2571 22.4053C23.2571 22.4053 17.1595 20.1416 21.1692 8.98535Z" fill="white"/>
<path d="M32.2191 3.79053C32.2191 3.79053 36.0363 8.67987 31.0407 17.32C31.0507 17.32 25.6701 13.6622 32.2191 3.79053Z" fill="white"/>
<path d="M43.6741 21.7513C43.6741 21.7513 39.7838 26.5842 30.2275 23.6831C30.2275 23.6831 32.5677 17.6088 43.6741 21.7513Z" fill="white"/>
<path d="M23.2336 44.9799C23.2336 44.9799 19.1243 42.8025 18.1551 36.0178C17.1858 29.2331 22.51 21.9937 31.6979 18.1201C35.5848 16.4837 37.8718 14.4688 39.2161 12.6631C38.29 11.3786 36.7366 7.76382 41.8716 1.46045C41.8716 1.46045 45.0083 8.62684 40.2517 12.7461C39.3024 14.9966 37.3507 17.6786 33.3741 19.8229C26.0517 23.7895 16.7012 32.4064 23.2336 44.9799Z" fill="white"/>
<path d="M51.0859 27.9021C51.0859 25.7689 51.4178 23.9986 52.0817 22.5912C52.644 21.3242 53.5458 20.2375 54.6874 19.4511C55.675 18.7808 56.8396 18.4192 58.0332 18.4122C58.9892 18.3923 59.9394 18.5639 60.8281 18.9167C61.5561 19.2131 62.2293 19.6294 62.8197 20.1482C63.3444 20.6077 63.8235 21.1168 64.2503 21.6684L63.6727 25.0674C63.079 24.0792 62.2881 23.2238 61.3492 22.5547C60.585 21.9673 59.657 21.632 58.6938 21.5954C58.021 21.589 57.3709 21.8381 56.8748 22.2925C56.2829 22.8692 55.8555 23.5934 55.6367 24.3903C55.307 25.5331 55.1547 26.7197 55.1853 27.9087C55.1853 29.9977 55.4862 31.5025 56.0881 32.423C56.69 33.3436 57.4136 33.8049 58.2589 33.8072C59.2326 33.7975 60.1779 33.4777 60.9575 32.8944C61.8188 32.2806 62.5145 31.4629 62.9823 30.5144L63.5798 33.5549C63.1921 34.1762 62.7132 34.7357 62.1591 35.2145C61.5228 35.7724 60.8068 36.2322 60.0348 36.5788C59.2097 36.9501 58.3139 37.1381 57.4092 37.1298C56.1345 37.1766 54.8856 36.763 53.8907 35.9647C52.9005 35.1032 52.1724 33.9806 51.7896 32.7251C51.2975 31.1656 51.0599 29.5371 51.0859 27.9021ZM67.0186 20.7025C66.6218 21.0759 66.3476 21.5609 66.2319 22.0933C66.0777 22.721 66.0018 23.3655 66.0062 24.0119V34.5606C66.0187 35.7705 65.9555 36.98 65.817 38.182C65.7225 39.0222 65.5275 39.8479 65.2361 40.6416C65.0061 41.2557 64.6801 41.8293 64.2702 42.3411C63.6153 43.1363 62.7673 43.75 61.8073 44.1236C60.6524 44.5859 59.4164 44.8116 58.1726 44.7874C57.035 44.7864 55.9005 44.6685 54.7869 44.4356C53.7745 44.2364 52.7816 43.9487 51.8195 43.5759C51.8413 43.0236 51.9453 42.4777 52.1282 41.9561C52.2834 41.4513 52.5347 40.9813 52.8684 40.5719C53.667 40.9355 54.5013 41.2147 55.3579 41.4051C56.1549 41.5983 56.9709 41.7018 57.7909 41.7138C58.9593 41.7138 59.8577 41.4925 60.4862 41.0499C61.1016 40.6321 61.555 40.0158 61.7708 39.3039C62.0044 38.5145 62.1164 37.6941 62.1027 36.8709V23.5073C62.0795 22.3923 62.357 21.2916 62.906 20.3208C63.4437 19.4047 64.3289 18.8437 65.5614 18.6379C65.9214 18.8759 66.2296 19.1841 66.4676 19.5441C66.7321 19.8872 66.922 20.2818 67.0252 20.7025H67.0186Z" fill="white"/>
<path d="M70.4082 20.772C70.5312 20.3471 70.7217 19.9448 70.9725 19.5804C71.1937 19.2153 71.482 18.8954 71.8222 18.6377C72.401 18.7227 72.955 18.9298 73.4477 19.2451C73.9404 19.5604 74.3605 19.9767 74.6802 20.4666C75.3511 21.5842 75.7248 22.8549 75.7656 24.1577V36.8043C75.1082 36.92 74.4415 36.9745 73.774 36.9669C73.0955 36.9742 72.4178 36.9198 71.7492 36.8043V24.4996C71.779 23.682 71.6306 22.8676 71.3144 22.113C71.1043 21.6103 70.7962 21.1545 70.4082 20.772ZM82.0258 18.89C82.0138 19.5184 81.9348 20.1437 81.7901 20.7554C81.6555 21.4265 81.4051 22.069 81.0499 22.6541C80.7995 22.5959 80.5456 22.5538 80.2898 22.5279L79.5098 22.4549C78.9122 22.4422 78.3214 22.5827 77.7937 22.8632C77.3032 23.1301 76.8692 23.4897 76.5157 23.922C76.1534 24.3669 75.85 24.8567 75.6129 25.3792C75.3704 25.9009 75.1554 26.4349 74.9689 26.9791L74.408 26.2754C74.446 25.381 74.5671 24.492 74.7698 23.62C74.9643 22.755 75.2841 21.923 75.7191 21.1504C76.1303 20.4146 76.7148 19.7902 77.4219 19.3314C78.2076 18.8511 79.1172 18.6122 80.0375 18.6443C80.3702 18.6426 80.7027 18.6604 81.0333 18.6974C81.3676 18.7422 81.699 18.8065 82.0258 18.89Z" fill="white"/>
<path d="M90.1313 36.8045C88.8013 37.0214 87.445 37.0214 86.115 36.8045V23.7231C86.154 23.2266 86.038 22.7302 85.783 22.3024C85.554 21.9705 85.1391 21.8244 84.535 21.8244H84.1035C83.9928 21.3613 83.9371 20.8866 83.9375 20.4104C83.9375 20.1814 83.9375 19.9457 83.974 19.6968C83.9999 19.444 84.0432 19.1934 84.1035 18.9466C84.5715 18.8869 85.0262 18.8437 85.4578 18.8205C85.8893 18.7972 86.2477 18.784 86.5266 18.784H87.0709C87.4874 18.7642 87.9032 18.8347 88.2899 18.9905C88.6766 19.1463 89.0251 19.3838 89.3115 19.6868C89.8921 20.378 90.1866 21.2651 90.1347 22.1663L90.1313 36.8045ZM84.9964 14.044C84.9827 13.4655 85.096 12.8911 85.3283 12.3611C85.628 12.2075 85.9475 12.0958 86.2776 12.0292C86.6538 11.9391 87.0393 11.8934 87.4261 11.8931C87.816 11.8966 88.2044 11.9422 88.5845 12.0292C88.9146 12.0841 89.2326 12.1964 89.5239 12.3611C89.6313 12.6238 89.7136 12.8961 89.7695 13.1743C89.8328 13.46 89.8662 13.7514 89.8691 14.044C89.8813 14.6277 89.7681 15.2072 89.5372 15.7435C89.252 15.9136 88.9362 16.0264 88.6078 16.0754C88.2234 16.1559 87.832 16.1981 87.4394 16.2015C87.0466 16.2007 86.6549 16.1584 86.271 16.0754C85.9448 16.0176 85.6306 15.9054 85.3416 15.7435C85.1061 15.2082 84.9884 14.6287 84.9964 14.044Z" fill="white"/>
<path d="M97.278 18.7273C98.0979 18.7273 98.6821 18.9862 99.0339 19.4974C99.4152 20.1319 99.5979 20.866 99.5584 21.6052V36.8043C98.9011 36.921 98.2343 36.9754 97.5668 36.967C96.8883 36.9742 96.2106 36.9198 95.542 36.8043V18.9829L95.7777 18.7273H97.278ZM105.311 25.5319C105.311 24.3148 105.134 23.4551 104.78 22.9528C104.605 22.7077 104.371 22.5105 104.101 22.3794C103.83 22.2483 103.53 22.1875 103.23 22.2027C102.568 22.2272 101.925 22.4278 101.367 22.7835C100.679 23.1898 100.056 23.6991 99.5219 24.2938C98.9634 24.8952 98.5141 25.5894 98.1941 26.3452V22.5114C98.7213 21.7793 99.3317 21.111 100.013 20.5198C100.669 19.9446 101.406 19.4692 102.201 19.1091C102.948 18.7685 103.759 18.5898 104.58 18.5846C105.512 18.5498 106.431 18.8125 107.203 19.3348C107.911 19.8454 108.458 20.5496 108.776 21.3629C109.143 22.2729 109.325 23.2465 109.314 24.2274V36.801C108.657 36.9185 107.99 36.9729 107.322 36.9636C106.643 36.9709 105.964 36.9165 105.294 36.801L105.311 25.5319ZM115.119 25.4954C115.119 24.2783 114.936 23.4253 114.568 22.9362C114.39 22.6968 114.156 22.5048 113.886 22.3769C113.617 22.249 113.32 22.1892 113.021 22.2027C112.373 22.2258 111.742 22.4193 111.193 22.7636C110.501 23.1699 109.875 23.6792 109.337 24.2739C108.746 24.9185 108.255 25.648 107.88 26.4381V22.123C108.467 21.4657 109.119 20.8686 109.825 20.3405C110.517 19.8184 111.275 19.3899 112.079 19.0659C112.838 18.756 113.649 18.5959 114.469 18.5946C115.402 18.5575 116.322 18.8242 117.091 19.3547C117.79 19.8747 118.324 20.5844 118.631 21.3994C118.977 22.312 119.148 23.2815 119.136 24.2573V32.8875C119.134 33.4969 119.183 34.1053 119.282 34.7065C119.361 35.2301 119.532 35.7357 119.786 36.2002C119.452 36.4728 119.072 36.6841 118.664 36.8242C118.212 36.9886 117.735 37.0718 117.254 37.0699C116.47 37.0699 115.917 36.8486 115.594 36.406C115.236 35.8435 115.064 35.1828 115.103 34.5173L115.119 25.4954Z" fill="white"/>
<path d="M139.025 27.8791C139.058 29.5601 138.753 31.2306 138.128 32.7916C137.59 34.1359 136.666 35.2908 135.473 36.1109C134.177 36.941 132.659 37.3566 131.121 37.3026C129.384 37.3026 127.931 36.8987 126.763 36.091C125.569 35.263 124.646 34.1016 124.108 32.7518C123.494 31.2019 123.195 29.5455 123.228 27.8791C123.196 26.1984 123.499 24.5283 124.121 22.9665C124.663 21.6245 125.586 20.4706 126.776 19.6472C128.092 18.8575 129.598 18.4404 131.133 18.4404C132.668 18.4404 134.174 18.8575 135.49 19.6472C136.684 20.4748 137.608 21.6363 138.145 22.9864C138.761 24.5424 139.06 26.2059 139.025 27.8791ZM127.37 27.8791C127.365 28.9218 127.471 29.9622 127.686 30.9826C127.847 31.8484 128.236 32.6559 128.811 33.3227C129.111 33.6305 129.474 33.8698 129.875 34.0245C130.276 34.1792 130.706 34.2455 131.135 34.2189C131.558 34.2453 131.982 34.1787 132.377 34.0239C132.772 33.8691 133.129 33.6298 133.422 33.3227C133.997 32.65 134.387 31.8389 134.553 30.9693C134.987 28.9208 134.987 26.8041 134.553 24.7556C134.388 23.8809 133.998 23.0642 133.422 22.3856C133.13 22.0758 132.774 21.8341 132.379 21.6775C131.984 21.5208 131.559 21.4532 131.135 21.4794C130.705 21.4519 130.274 21.5188 129.873 21.6753C129.471 21.8318 129.109 22.0743 128.811 22.3856C128.231 23.0617 127.84 23.8795 127.679 24.7556C127.466 25.7829 127.363 26.8299 127.37 27.8791Z" fill="white"/>
</g>
</g>
</g>
<defs>
<clipPath id="clip0_1_31">
<rect width="139.05" height="44.98" fill="white"/>
</clipPath>
<clipPath id="clip1_1_31">
<rect width="139.05" height="44.98" fill="white"/>
</clipPath>
<clipPath id="clip2_1_31">
<rect width="139" height="44.98" fill="white" transform="translate(0.0253906)"/>
</clipPath>
</defs>
</svg>
