<svg width="170" height="55" viewBox="0 0 170 55" fill="none" xmlns="http://www.w3.org/2000/svg">
<g clip-path="url(#clip0_1_676)">
<g clip-path="url(#clip1_1_676)">
<g clip-path="url(#clip2_1_676)">
<path d="M36.8059 3.84948L35.4138 -0.00195312H19.8823L-0.00390625 54.9976H14.022L23.616 26.5522C21.668 23.7113 20.3287 18.7073 23.4172 10.1116L24.6347 6.73907L27.4756 8.95496C27.7313 9.14976 32.8773 13.3299 31.9683 22.8023C32.8043 22.2665 33.6728 21.7674 34.5778 21.2885C32.7028 18.5734 30.9577 13.0174 36.8059 3.84948ZM49.2733 38.3094L47.1426 32.4207C46.0859 32.5975 45.0161 32.6843 43.9446 32.6804C41.3107 32.6472 38.6961 32.226 36.1849 31.4304L35.3043 31.1626C34.7401 31.6658 34.1801 32.1975 33.6363 32.7657L33.6809 32.8712C34.3394 32.7911 35.0022 32.7518 35.6655 32.7535C38.3562 32.7535 41.4244 33.3704 44.7888 34.5757L48.1654 35.7932L45.9495 38.6341C45.8237 38.7965 43.1086 42.1852 37.1021 43.0334L37.8164 45.1438L41.1484 55.0342H55.3122L49.2733 38.3094Z" fill="#EDDD5E"/>
<path d="M43.8994 36.9988C43.8994 36.9988 39.2119 42.9646 27.4912 39.5556C27.4912 39.5556 30.259 32.0921 43.8994 36.9988Z" fill="#5B8B51"/>
<path d="M25.8522 10.9883C25.8522 10.9883 31.818 15.6757 28.4049 27.3964C28.4049 27.3964 20.9496 24.6286 25.8522 10.9883Z" fill="#5B8B51"/>
<path d="M39.3623 4.63696C39.3623 4.63696 44.0295 10.615 37.9216 21.179C37.9338 21.179 31.3551 16.7067 39.3623 4.63696Z" fill="#5B8B51"/>
<path d="M53.3684 26.597C53.3684 26.597 48.6119 32.506 36.9277 28.959C36.9277 28.959 39.7889 21.5321 53.3684 26.597Z" fill="#5B8B51"/>
<path d="M28.376 54.9977C28.376 54.9977 23.3516 52.3353 22.1666 44.04C20.9815 35.7446 27.4912 26.8932 38.7249 22.157C43.4773 20.1562 46.2735 17.6928 47.9172 15.485C46.7849 13.9144 44.8856 9.49476 51.1639 1.78784C51.1639 1.78784 54.9991 10.55 49.1834 15.5864C48.0227 18.338 45.6364 21.6172 40.7744 24.239C31.8215 29.0888 20.389 39.6244 28.376 54.9977Z" fill="#5B8B51"/>
<path d="M62.4301 34.1171C62.4301 31.5089 62.8359 29.3444 63.6476 27.6236C64.3352 26.0746 65.4378 24.7458 66.8335 23.7844C68.041 22.9648 69.465 22.5227 70.9243 22.5141C72.0931 22.4898 73.255 22.6996 74.3415 23.131C75.2316 23.4934 76.0547 24.0023 76.7766 24.6366C77.4181 25.1985 78.0039 25.821 78.5257 26.4954L77.8196 30.6512C77.0936 29.4429 76.1266 28.3971 74.9787 27.579C74.0443 26.8608 72.9097 26.4509 71.732 26.4061C70.9094 26.3982 70.1146 26.7028 69.508 27.2584C68.7843 27.9635 68.2617 28.8489 67.9942 29.8233C67.5911 31.2206 67.4049 32.6714 67.4422 34.1252C67.4422 36.6793 67.8102 38.5191 68.5461 39.6447C69.282 40.7702 70.1668 41.3343 71.2003 41.337C72.3908 41.3251 73.5466 40.9342 74.4998 40.2209C75.5529 39.4706 76.4035 38.4708 76.9754 37.3111L77.7059 41.0286C77.232 41.7882 76.6464 42.4723 75.9689 43.0578C75.1909 43.7399 74.3155 44.3021 73.3716 44.7258C72.3628 45.1798 71.2676 45.4097 70.1614 45.3995C68.6029 45.4567 67.0758 44.951 65.8594 43.975C64.6487 42.9216 63.7585 41.549 63.2905 40.014C62.6888 38.1073 62.3983 36.1162 62.4301 34.1171ZM81.9105 25.3144C81.4253 25.771 81.09 26.3639 80.9486 27.0149C80.76 27.7824 80.6673 28.5703 80.6726 29.3606V42.2583C80.6879 43.7376 80.6106 45.2163 80.4413 46.686C80.3258 47.7132 80.0873 48.7229 79.7311 49.6933C79.4498 50.444 79.0512 51.1454 78.5501 51.7712C77.7494 52.7434 76.7125 53.4938 75.5388 53.9506C74.1267 54.5158 72.6155 54.7918 71.0948 54.7622C69.7038 54.7609 68.3167 54.6168 66.9552 54.332C65.7174 54.0885 64.5033 53.7368 63.327 53.2809C63.3537 52.6056 63.4809 51.9381 63.7044 51.3004C63.8942 50.6832 64.2015 50.1085 64.6095 49.608C65.5859 50.0525 66.606 50.394 67.6533 50.6267C68.6277 50.8629 69.6255 50.9895 70.6281 51.0041C72.0566 51.0041 73.1551 50.7336 73.9235 50.1925C74.6759 49.6816 75.2303 48.9281 75.4941 48.0577C75.7798 47.0925 75.9167 46.0894 75.9 45.0829V28.7438C75.8716 27.3804 76.2108 26.0346 76.8821 24.8477C77.5395 23.7276 78.6218 23.0417 80.1288 22.7901C80.5689 23.0811 80.9458 23.4579 81.2368 23.898C81.5601 24.3176 81.7923 24.8 81.9186 25.3144H81.9105Z" fill="#414B3D"/>
<path d="M86.0547 25.3998C86.2051 24.8803 86.438 24.3884 86.7446 23.9429C87.015 23.4965 87.3676 23.1054 87.7836 22.7903C88.4912 22.8943 89.1686 23.1474 89.771 23.5329C90.3734 23.9184 90.887 24.4275 91.2779 25.0265C92.0982 26.3928 92.5551 27.9465 92.605 29.5394V45.002C91.8012 45.1435 90.986 45.21 90.1699 45.2008C89.3404 45.2097 88.5118 45.1432 87.6943 45.002V29.9574C87.7307 28.9577 87.5493 27.9621 87.1626 27.0394C86.9058 26.4248 86.5291 25.8675 86.0547 25.3998ZM100.259 23.0987C100.244 23.8671 100.148 24.6317 99.971 25.3795C99.8064 26.2 99.5002 26.9856 99.0659 27.701C98.7597 27.6299 98.4493 27.5784 98.1366 27.5467L97.1828 27.4575C96.4523 27.4419 95.7299 27.6138 95.0847 27.9566C94.485 28.283 93.9543 28.7227 93.5222 29.2513C93.0792 29.7952 92.7081 30.3941 92.4183 31.0329C92.1218 31.6707 91.859 32.3237 91.6309 32.9891L90.9451 32.1287C90.9915 31.0351 91.1396 29.9481 91.3874 28.882C91.6253 27.8243 92.0163 26.8071 92.5481 25.8625C93.0509 24.9629 93.7655 24.1994 94.6301 23.6385C95.5908 23.0512 96.7028 22.7591 97.8281 22.7984C98.2349 22.7963 98.6414 22.818 99.0457 22.8633C99.4544 22.9181 99.8596 22.9967 100.259 23.0987Z" fill="#414B3D"/>
<path d="M110.17 45.0018C108.544 45.267 106.885 45.267 105.259 45.0018V29.0076C105.307 28.4006 105.165 27.7937 104.853 27.2706C104.573 26.8648 104.066 26.6862 103.327 26.6862H102.8C102.664 26.1199 102.596 25.5396 102.597 24.9573C102.597 24.6773 102.597 24.3892 102.641 24.0848C102.673 23.7758 102.726 23.4693 102.8 23.1676C103.372 23.0945 103.928 23.0418 104.455 23.0134C104.983 22.985 105.421 22.9687 105.762 22.9687H106.428C106.937 22.9446 107.445 23.0307 107.918 23.2212C108.391 23.4117 108.817 23.7022 109.167 24.0726C109.877 24.9178 110.237 26.0023 110.174 27.1042L110.17 45.0018ZM103.891 17.1733C103.875 16.466 104.013 15.7637 104.297 15.1157C104.664 14.9279 105.054 14.7913 105.458 14.7099C105.918 14.5997 106.389 14.5439 106.862 14.5435C107.339 14.5478 107.814 14.6035 108.278 14.7099C108.682 14.777 109.071 14.9144 109.427 15.1157C109.558 15.4369 109.659 15.7698 109.727 16.11C109.805 16.4592 109.846 16.8156 109.849 17.1733C109.864 17.887 109.726 18.5956 109.443 19.2512C109.094 19.4592 108.708 19.5971 108.307 19.6571C107.837 19.7554 107.358 19.8071 106.878 19.8113C106.398 19.8102 105.919 19.7585 105.45 19.6571C105.051 19.5864 104.667 19.4492 104.313 19.2512C104.026 18.5968 103.882 17.8882 103.891 17.1733Z" fill="#414B3D"/>
<path d="M118.908 22.8997C119.91 22.8997 120.624 23.2163 121.055 23.8412C121.521 24.617 121.744 25.5146 121.696 26.4183V45.0018C120.892 45.1445 120.077 45.211 119.261 45.2007C118.431 45.2096 117.603 45.143 116.785 45.0018V23.2122L117.073 22.8997H118.908ZM128.729 31.2194C128.729 29.7314 128.513 28.6802 128.08 28.0661C127.866 27.7663 127.581 27.5252 127.249 27.3649C126.918 27.2046 126.552 27.1303 126.184 27.1489C125.376 27.1789 124.59 27.4241 123.908 27.8591C123.066 28.3558 122.305 28.9785 121.651 29.7056C120.968 30.441 120.419 31.2897 120.028 32.2137V27.5263C120.672 26.6313 121.419 25.8141 122.252 25.0912C123.054 24.388 123.955 23.8068 124.926 23.3664C125.84 22.95 126.832 22.7315 127.836 22.7252C128.975 22.6826 130.098 23.0038 131.042 23.6424C131.909 24.2667 132.577 25.1277 132.966 26.1221C133.414 27.2347 133.638 28.4251 133.624 29.6245V44.9977C132.82 45.1414 132.005 45.208 131.188 45.1966C130.358 45.2055 129.528 45.1389 128.709 44.9977L128.729 31.2194ZM140.722 31.1748C140.722 29.6867 140.497 28.6437 140.048 28.0458C139.83 27.7531 139.544 27.5182 139.214 27.3619C138.884 27.2055 138.521 27.1324 138.157 27.1489C137.364 27.1772 136.593 27.4137 135.921 27.8347C135.075 28.3315 134.31 28.9541 133.652 29.6813C132.929 30.4694 132.329 31.3613 131.87 32.3274V27.0515C132.589 26.2478 133.385 25.5178 134.248 24.8721C135.095 24.2338 136.021 23.7098 137.004 23.3137C137.932 22.9347 138.924 22.739 139.926 22.7374C141.067 22.692 142.192 23.0181 143.132 23.6667C143.987 24.3026 144.64 25.1703 145.015 26.1667C145.438 27.2825 145.648 28.4679 145.632 29.661V40.2129C145.63 40.9579 145.69 41.7018 145.811 42.4369C145.908 43.0771 146.117 43.6952 146.428 44.2632C146.019 44.5965 145.555 44.8548 145.056 45.0261C144.503 45.2272 143.919 45.3288 143.331 45.3265C142.373 45.3265 141.697 45.0559 141.302 44.5148C140.865 43.827 140.655 43.0192 140.701 42.2056L140.722 31.1748Z" fill="#414B3D"/>
<path d="M169.95 34.0889C169.99 36.1442 169.618 38.1867 168.854 40.0953C168.196 41.7389 167.066 43.151 165.607 44.1537C164.023 45.1686 162.167 45.6768 160.287 45.6107C158.163 45.6107 156.387 45.1169 154.958 44.1294C153.498 43.117 152.369 41.6969 151.711 40.0466C150.961 38.1516 150.596 36.1264 150.636 34.0889C150.596 32.034 150.967 29.992 151.727 28.0824C152.39 26.4416 153.519 25.0308 154.974 24.024C156.583 23.0586 158.424 22.5486 160.301 22.5486C162.177 22.5486 164.018 23.0586 165.628 24.024C167.088 25.0359 168.217 26.4561 168.874 28.1068C169.628 30.0093 169.993 32.0431 169.95 34.0889ZM155.701 34.0889C155.694 35.3638 155.823 36.6359 156.086 37.8835C156.284 38.9421 156.758 39.9294 157.462 40.7447C157.829 41.1209 158.273 41.4136 158.763 41.6027C159.253 41.7918 159.778 41.8729 160.303 41.8404C160.821 41.8726 161.339 41.7912 161.822 41.6019C162.305 41.4126 162.741 41.1201 163.099 40.7447C163.803 39.9221 164.28 38.9304 164.483 37.8672C165.013 35.3626 165.013 32.7746 164.483 30.2699C164.281 29.2004 163.804 28.2019 163.099 27.3722C162.743 26.9935 162.308 26.6979 161.825 26.5064C161.341 26.3149 160.822 26.2322 160.303 26.2643C159.777 26.2306 159.251 26.3124 158.76 26.5037C158.269 26.6951 157.826 26.9915 157.462 27.3722C156.753 28.1989 156.275 29.1987 156.078 30.2699C155.818 31.526 155.691 32.8061 155.701 34.0889Z" fill="#414B3D"/>
</g>
</g>
</g>
<defs>
<clipPath id="clip0_1_676">
<rect width="169.95" height="55" fill="white"/>
</clipPath>
<clipPath id="clip1_1_676">
<rect width="169.95" height="55" fill="white"/>
</clipPath>
<clipPath id="clip2_1_676">
<rect width="169.95" height="54.9955" fill="white" transform="translate(0 0.00219727)"/>
</clipPath>
</defs>
</svg>
