<svg width="23" height="24" viewBox="0 0 23 24" fill="none" xmlns="http://www.w3.org/2000/svg">
<g clip-path="url(#clip0_1_83)">
<g clip-path="url(#clip1_1_83)">
<path d="M4.09169 3.528L3.59569 4.04L4.25169 4.6C5.32902 5.496 6.55569 6.17867 7.93169 6.648C8.45435 6.82933 8.90769 6.94667 9.29169 7C9.70769 7.064 10.3104 7.10133 11.0997 7.112C11.6544 7.112 12.177 7.10133 12.6677 7.08C13.1797 7.05867 13.5264 7.02667 13.7077 6.984C13.8464 6.952 13.9264 6.95733 13.9477 7C13.969 7.04267 13.9077 7.15467 13.7637 7.336C13.6197 7.51733 13.361 7.81067 12.9877 8.216C12.625 8.58933 12.0917 9.13333 11.3877 9.848L8.77969 12.472L3.17969 18.072L3.62769 18.552L4.10769 19L9.70769 13.4L12.3317 10.792C13.0464 10.088 13.5904 9.55467 13.9637 9.192C14.369 8.81867 14.6624 8.56 14.8437 8.416C15.025 8.272 15.137 8.21067 15.1797 8.232C15.2224 8.25333 15.2277 8.33333 15.1957 8.472C15.153 8.65333 15.121 9 15.0997 9.512C15.0784 10.0027 15.0677 10.5253 15.0677 11.08C15.0784 11.8693 15.1157 12.472 15.1797 12.888C15.233 13.272 15.3504 13.7253 15.5317 14.248C16.001 15.624 16.6837 16.8507 17.5797 17.928L18.1397 18.584L18.6517 18.088L19.1797 17.592L18.7797 17.16C18.5664 16.9573 18.225 16.4773 17.7557 15.72C17.073 14.5893 16.6464 13.3733 16.4757 12.072C16.305 10.7813 16.393 9.504 16.7397 8.24C17.0864 6.976 17.6757 5.816 18.5077 4.76L19.1637 3.928L18.7317 3.464L18.2837 3.016L17.8517 3.352C17.361 3.72533 16.833 4.08533 16.2677 4.432C15.7024 4.77867 15.233 5.02667 14.8597 5.176C14.2837 5.4 13.5504 5.57333 12.6597 5.696C11.769 5.81867 11.0357 5.84267 10.4597 5.768C9.46769 5.65067 8.46235 5.37067 7.44369 4.928C6.42502 4.48533 5.61702 3.976 5.01969 3.4L4.58769 3L4.09169 3.528Z" fill="#404A3D"/>
</g>
<g clip-path="url(#clip2_1_83)">
<path d="M-0.993349 23.0574L-1.12231 23.1905L-0.951749 23.3361C-0.671642 23.569 -0.352709 23.7465 0.00505126 23.8686C0.140945 23.9157 0.258811 23.9462 0.358651 23.9601C0.466811 23.9767 0.623505 23.9864 0.828731 23.9892C0.972944 23.9892 1.10884 23.9864 1.23641 23.9809C1.36953 23.9753 1.45966 23.967 1.50681 23.9559C1.54286 23.9476 1.56366 23.949 1.56921 23.9601C1.57476 23.9712 1.55881 24.0003 1.52137 24.0474C1.48393 24.0946 1.41668 24.1709 1.31961 24.2762C1.22532 24.3733 1.08665 24.5147 0.903611 24.7006L0.225531 25.3828L-1.23047 26.8388L-1.11399 26.9636L-0.989189 27.0801L0.466811 25.6241L1.14905 24.946C1.33486 24.763 1.4763 24.6243 1.57337 24.53C1.67876 24.4329 1.75502 24.3657 1.80217 24.3282C1.84932 24.2908 1.87844 24.2749 1.88953 24.2804C1.90062 24.2859 1.90201 24.3067 1.89369 24.3428C1.8826 24.3899 1.87428 24.4801 1.86873 24.6132C1.86318 24.7408 1.86041 24.8767 1.86041 25.0209C1.86318 25.2261 1.87289 25.3828 1.88953 25.491C1.9034 25.5908 1.9339 25.7087 1.98105 25.8446C2.10308 26.2023 2.28057 26.5213 2.51353 26.8014L2.65913 26.9719L2.79225 26.843L2.92953 26.714L2.82553 26.6017C2.77006 26.549 2.68132 26.4242 2.55929 26.2273C2.3818 25.9333 2.27086 25.6171 2.22649 25.2788C2.18212 24.9432 2.205 24.6111 2.29513 24.2825C2.38526 23.9538 2.53849 23.6522 2.75481 23.3777L2.92537 23.1614L2.81305 23.0407L2.69657 22.9242L2.58425 23.0116C2.45668 23.1087 2.3194 23.2023 2.17241 23.2924C2.02542 23.3825 1.9034 23.447 1.80633 23.4858C1.65657 23.5441 1.4659 23.5891 1.23433 23.621C1.00276 23.6529 0.812091 23.6592 0.662331 23.6398C0.404411 23.6093 0.143025 23.5365 -0.121829 23.4214C-0.386682 23.3063 -0.596762 23.1738 -0.752069 23.0241L-0.864389 22.9201L-0.993349 23.0574Z" fill="#404A3D"/>
</g>
</g>
<defs>
<clipPath id="clip0_1_83">
<rect width="22.38" height="24" fill="white"/>
</clipPath>
<clipPath id="clip1_1_83">
<rect width="16" height="16" fill="white" transform="matrix(1 0 0 -1 3.17969 19)"/>
</clipPath>
<clipPath id="clip2_1_83">
<rect width="4.16" height="6.24" fill="white" transform="matrix(1 0 0 -1 -1.23047 28.1201)"/>
</clipPath>
</defs>
</svg>
