<svg width="18" height="18" viewBox="0 0 18 18" fill="none" xmlns="http://www.w3.org/2000/svg">
<path d="M5.36427 1.15197C5.13627 1.21197 4.94727 1.32597 4.79727 1.49397C4.64727 1.66197 4.55427 1.85997 4.51827 2.08797L4.50027 2.24997H3.83427C3.46227 2.24997 3.19227 2.26497 3.02427 2.29497C2.85627 2.32497 2.68227 2.38797 2.50227 2.48397C2.29827 2.59197 2.11527 2.73897 1.95327 2.92497C1.79127 3.11097 1.67427 3.31197 1.60227 3.52797C1.57827 3.61197 1.56027 3.74997 1.54827 3.94197C1.53627 4.18197 1.53027 4.71597 1.53027 5.54397V13.59C1.53027 14.406 1.53627 14.94 1.54827 15.192C1.56027 15.384 1.57827 15.516 1.60227 15.588C1.67427 15.804 1.79127 16.008 1.95327 16.2C2.11527 16.392 2.29827 16.542 2.50227 16.65L2.57427 16.686C2.68227 16.746 2.78427 16.782 2.88027 16.794C3.02427 16.83 3.28227 16.851 3.65427 16.857C4.02627 16.863 4.63827 16.866 5.49027 16.866H14.9943L15.2283 16.776C15.5043 16.68 15.7473 16.524 15.9573 16.308C16.1673 16.092 16.3143 15.852 16.3983 15.588C16.4223 15.516 16.4403 15.384 16.4523 15.192C16.4643 14.94 16.4703 14.406 16.4703 13.59V5.54397C16.4703 4.71597 16.4643 4.18197 16.4523 3.94197C16.4403 3.74997 16.4223 3.61197 16.3983 3.52797C16.3143 3.26397 16.1673 3.02397 15.9573 2.80797C15.7473 2.59197 15.5043 2.43597 15.2283 2.33997C15.1083 2.31597 15.0003 2.29797 14.9043 2.28597C14.7843 2.27397 14.5683 2.26197 14.2563 2.24997H13.5003L13.4823 2.08797C13.4583 1.97997 13.4133 1.85397 13.3473 1.70997C13.2813 1.56597 13.2183 1.46997 13.1583 1.42197C13.0983 1.37397 12.9963 1.31397 12.8523 1.24197C12.7803 1.19397 12.7203 1.16697 12.6723 1.16097C12.6243 1.15497 12.5283 1.15197 12.3843 1.15197C12.2403 1.15197 12.1413 1.15497 12.0873 1.16097C12.0333 1.16697 11.9703 1.18797 11.8983 1.22397C11.7303 1.30797 11.5893 1.42797 11.4753 1.58397C11.3613 1.73997 11.2923 1.90797 11.2683 2.08797L11.2503 2.24997H6.75027L6.73227 2.08797C6.67227 1.71597 6.48027 1.43997 6.15627 1.25997C6.03627 1.19997 5.90127 1.16097 5.75127 1.14297C5.60127 1.12497 5.47227 1.12797 5.36427 1.15197ZM5.77827 1.92597C5.87427 1.96197 5.93727 2.02797 5.96727 2.12397C5.99727 2.21997 6.01227 2.38197 6.01227 2.60997C6.01227 2.87397 5.99427 3.05397 5.95827 3.14997C5.93427 3.20997 5.88927 3.26097 5.82327 3.30297C5.75727 3.34497 5.69127 3.36597 5.62527 3.36597C5.55927 3.36597 5.49327 3.34497 5.42727 3.30297C5.36127 3.26097 5.31627 3.20997 5.29227 3.14997C5.25627 3.05397 5.23827 2.87397 5.23827 2.60997C5.23827 2.38197 5.25327 2.21997 5.28327 2.12397C5.31327 2.02797 5.36727 1.96197 5.44527 1.92597C5.52327 1.88997 5.58027 1.87197 5.61627 1.87197C5.65227 1.87197 5.70627 1.88997 5.77827 1.92597ZM12.5283 1.92597C12.6243 1.96197 12.6873 2.02797 12.7173 2.12397C12.7473 2.21997 12.7623 2.38197 12.7623 2.60997C12.7623 2.87397 12.7443 3.05397 12.7083 3.14997C12.6843 3.20997 12.6393 3.26097 12.5733 3.30297C12.5073 3.34497 12.4413 3.36597 12.3753 3.36597C12.3093 3.36597 12.2433 3.34497 12.1773 3.30297C12.1113 3.26097 12.0663 3.20997 12.0423 3.14997C12.0063 3.05397 11.9883 2.87397 11.9883 2.60997C11.9883 2.38197 12.0033 2.21997 12.0333 2.12397C12.0633 2.02797 12.1173 1.96197 12.1953 1.92597C12.2733 1.88997 12.3303 1.87197 12.3663 1.87197C12.4023 1.87197 12.4563 1.88997 12.5283 1.92597ZM4.51827 3.14997C4.54227 3.32997 4.60827 3.49797 4.71627 3.65397C4.82427 3.80997 4.96827 3.92997 5.14827 4.01397C5.20827 4.04997 5.26527 4.07097 5.31927 4.07697C5.37327 4.08297 5.47527 4.08597 5.62527 4.08597C5.77527 4.08597 5.87727 4.08297 5.93127 4.07697C5.98527 4.07097 6.04827 4.04997 6.12027 4.01397C6.28827 3.91797 6.42927 3.79497 6.54327 3.64497C6.65727 3.49497 6.72027 3.32997 6.73227 3.14997L6.76827 2.98797H11.2323L11.2683 3.14997C11.2923 3.32997 11.3583 3.49797 11.4663 3.65397C11.5743 3.80997 11.7183 3.92997 11.8983 4.01397C12.0063 4.06197 12.1653 4.08597 12.3753 4.08597C12.5853 4.08597 12.7503 4.06197 12.8703 4.01397C13.0383 3.91797 13.1793 3.79497 13.2933 3.64497C13.4073 3.49497 13.4703 3.32997 13.4823 3.14997L13.5183 2.98797H14.1843C14.6283 2.99997 14.9073 3.02997 15.0213 3.07797C15.1353 3.12597 15.2553 3.20697 15.3813 3.32097C15.5073 3.43497 15.5943 3.53997 15.6423 3.63597C15.6903 3.73197 15.7173 3.82797 15.7233 3.92397C15.7293 4.01997 15.7383 4.27797 15.7503 4.69797V5.61597H2.25027V4.69797C2.26227 4.28997 2.27127 4.03497 2.27727 3.93297C2.28327 3.83097 2.31027 3.74397 2.35827 3.67197C2.43027 3.49197 2.58027 3.31797 2.80827 3.14997C2.90427 3.08997 3.03027 3.04797 3.18627 3.02397C3.34227 2.99997 3.57627 2.98797 3.88827 2.98797H4.48227L4.51827 3.14997ZM15.7503 10.818L15.7323 15.282L15.6423 15.462C15.5943 15.582 15.5073 15.699 15.3813 15.813C15.2553 15.927 15.1383 16.002 15.0303 16.038C14.9223 16.074 14.5863 16.098 14.0223 16.11C13.2903 16.122 11.6193 16.128 9.00927 16.128C6.39927 16.128 4.72227 16.122 3.97827 16.11C3.41427 16.098 3.07827 16.074 2.97027 16.038C2.86227 16.002 2.74527 15.927 2.61927 15.813C2.49327 15.699 2.40627 15.582 2.35827 15.462L2.26827 15.282L2.25027 10.818V6.35397H15.7503V10.818ZM4.21227 7.93797C4.04427 7.99797 3.91827 8.11797 3.83427 8.29797C3.79827 8.35797 3.77727 8.43297 3.77127 8.52297C3.76527 8.61297 3.76227 8.84997 3.76227 9.23397L3.78027 10.008L3.88827 10.17C3.94827 10.254 4.03827 10.332 4.15827 10.404C4.23027 10.452 4.30527 10.479 4.38327 10.485C4.46127 10.491 4.68927 10.494 5.06727 10.494C5.44527 10.494 5.67027 10.491 5.74227 10.485C5.81427 10.479 5.88627 10.455 5.95827 10.413C6.03027 10.371 6.12627 10.29 6.24627 10.17L6.35427 10.008V9.26997C6.36627 8.86197 6.36327 8.59497 6.34527 8.46897C6.32727 8.34297 6.27027 8.22597 6.17427 8.11797C6.07827 8.00997 5.96727 7.94097 5.84127 7.91097C5.71527 7.88097 5.45427 7.87197 5.05827 7.88397H4.46427C4.34427 7.89597 4.26027 7.91397 4.21227 7.93797ZM5.63427 9.17997V9.73797H4.50027V8.60397H5.63427V9.17997ZM8.15427 7.93797C7.99827 7.98597 7.86627 8.10597 7.75827 8.29797C7.73427 8.35797 7.71927 8.43297 7.71327 8.52297C7.70727 8.61297 7.70427 8.84997 7.70427 9.23397L7.72227 10.008L7.83027 10.17C7.87827 10.242 7.96227 10.32 8.08227 10.404C8.16627 10.452 8.24727 10.479 8.32527 10.485C8.40327 10.491 8.62827 10.494 9.00027 10.494C9.37227 10.494 9.59727 10.491 9.67527 10.485C9.75327 10.479 9.83727 10.449 9.92727 10.395C10.0173 10.341 10.0983 10.266 10.1703 10.17L10.2783 10.008L10.2963 9.26997C10.3083 8.86197 10.3053 8.59497 10.2873 8.46897C10.2693 8.34297 10.2123 8.22597 10.1163 8.11797C10.0203 8.00997 9.90927 7.94097 9.78327 7.91097C9.65727 7.88097 9.39627 7.87197 9.00027 7.88397H8.40627C8.27427 7.89597 8.19027 7.91397 8.15427 7.93797ZM9.55827 9.17997V9.73797H8.44227V8.60397H9.55827V9.17997ZM12.0963 7.93797C11.9403 7.98597 11.8083 8.10597 11.7003 8.29797C11.6763 8.36997 11.6583 8.44797 11.6463 8.53197C11.6343 8.65197 11.6343 8.88597 11.6463 9.23397L11.6643 10.008L11.7543 10.17C11.8743 10.29 11.9703 10.371 12.0423 10.413C12.1143 10.455 12.1893 10.479 12.2673 10.485C12.3453 10.491 12.5703 10.494 12.9423 10.494C13.3143 10.494 13.5393 10.491 13.6173 10.485C13.6953 10.479 13.7763 10.452 13.8603 10.404C13.9803 10.32 14.0643 10.242 14.1123 10.17L14.2203 10.008L14.2383 9.26997C14.2383 8.86197 14.2293 8.59497 14.2113 8.46897C14.1933 8.34297 14.1423 8.23197 14.0583 8.13597C13.9503 8.01597 13.8363 7.94097 13.7163 7.91097C13.5963 7.88097 13.3383 7.87197 12.9423 7.88397H12.3303C12.2223 7.89597 12.1443 7.91397 12.0963 7.93797ZM13.5003 9.17997V9.73797H12.3843V8.60397H13.5003V9.17997ZM4.32027 12.024C4.08027 12.096 3.91227 12.24 3.81627 12.456C3.78027 12.564 3.76227 12.852 3.76227 13.32C3.76227 13.728 3.77427 13.989 3.79827 14.103C3.82227 14.217 3.88527 14.319 3.98727 14.409C4.08927 14.499 4.20027 14.556 4.32027 14.58C4.44027 14.604 4.69527 14.616 5.08527 14.616C5.47527 14.616 5.73027 14.604 5.85027 14.58C5.97027 14.556 6.07827 14.49 6.17427 14.382C6.27027 14.274 6.32727 14.157 6.34527 14.031C6.36327 13.905 6.36627 13.638 6.35427 13.23V12.492L6.24627 12.33C6.17427 12.234 6.08427 12.156 5.97627 12.096C5.90427 12.048 5.82927 12.021 5.75127 12.015C5.67327 12.009 5.46027 12.006 5.11227 12.006C4.93227 11.994 4.76427 11.991 4.60827 11.997C4.45227 12.003 4.35627 12.012 4.32027 12.024ZM5.63427 13.32V13.878H4.50027V12.762H5.63427V13.32ZM8.26227 12.024C8.02227 12.096 7.85427 12.24 7.75827 12.456C7.73427 12.504 7.71627 12.588 7.70427 12.708V13.32C7.70427 13.728 7.71627 13.989 7.74027 14.103C7.76427 14.217 7.82727 14.322 7.92927 14.418C8.03127 14.514 8.13927 14.571 8.25327 14.589C8.36727 14.607 8.62227 14.616 9.01827 14.616C9.41427 14.616 9.67227 14.604 9.79227 14.58C9.91227 14.556 10.0203 14.49 10.1163 14.382C10.2123 14.274 10.2693 14.157 10.2873 14.031C10.3053 13.905 10.3083 13.638 10.2963 13.23L10.2783 12.492L10.1703 12.33C10.1223 12.246 10.0383 12.168 9.91827 12.096C9.83427 12.048 9.75627 12.021 9.68427 12.015C9.61227 12.009 9.40227 12.006 9.05427 12.006C8.87427 11.994 8.70627 11.991 8.55027 11.997C8.39427 12.003 8.29827 12.012 8.26227 12.024ZM9.55827 13.32V13.878H8.44227V12.762H9.55827V13.32ZM12.2043 12.024C11.9643 12.096 11.7903 12.24 11.6823 12.456C11.6703 12.504 11.6583 12.588 11.6463 12.708V13.32C11.6463 13.728 11.6583 13.989 11.6823 14.103C11.7063 14.217 11.7663 14.319 11.8623 14.409C11.9583 14.499 12.0663 14.556 12.1863 14.58C12.3063 14.604 12.5643 14.616 12.9603 14.616C13.3563 14.616 13.6113 14.604 13.7253 14.58C13.8393 14.556 13.9503 14.484 14.0583 14.364C14.1423 14.268 14.1933 14.157 14.2113 14.031C14.2293 13.905 14.2383 13.638 14.2383 13.23L14.2203 12.492L14.1123 12.33C14.0763 12.27 13.9983 12.198 13.8783 12.114L13.8603 12.096C13.7763 12.048 13.6953 12.021 13.6173 12.015C13.5393 12.009 13.3323 12.006 12.9963 12.006C12.8163 11.994 12.6483 11.991 12.4923 11.997C12.3363 12.003 12.2403 12.012 12.2043 12.024ZM13.5003 13.32V13.878H12.3843V12.762H13.5003V13.32Z" fill="#5B8C51"/>
</svg>
