<svg width="45" height="45" viewBox="0 0 45 45" fill="none" xmlns="http://www.w3.org/2000/svg">
<path d="M40.8002 43.8C40.4002 43.8 40.0002 43.75 39.6002 43.65C34.5002 41.75 30.1002 39.95 26.4002 38.25C21.0002 35.85 17.5252 33.875 15.9752 32.325C14.4252 30.775 13.3252 28.95 12.6752 26.85C12.0252 24.75 11.9252 22.675 12.3752 20.625C12.8252 18.575 13.8002 16.8 15.3002 15.3C16.8002 13.8 18.5752 12.825 20.6252 12.375C22.6752 11.925 24.7502 12.025 26.8502 12.675C28.9502 13.325 30.7752 14.425 32.3252 15.975C33.8752 17.525 35.8502 21 38.2502 26.4C39.9502 30.1 41.7502 34.5 43.6502 39.6C43.8502 40.2 43.8752 40.8 43.7252 41.4C43.5752 42 43.3002 42.5 42.9002 42.9C42.3002 43.5 41.6002 43.8 40.8002 43.8ZM23.2502 13.35C21.9502 13.35 20.6752 13.6 19.4252 14.1C18.1752 14.6 17.1002 15.3 16.2002 16.2C14.9002 17.5 14.0502 19.075 13.6502 20.925C13.2502 22.775 13.3252 24.65 13.8752 26.55C14.4252 28.45 15.4502 30.15 16.9502 31.65C18.0502 32.75 20.6252 34.25 24.6752 36.15C28.7252 38.05 33.8502 40.15 40.0502 42.45C40.4502 42.55 40.8252 42.575 41.1752 42.525C41.5252 42.475 41.8252 42.325 42.0752 42.075C42.3252 41.825 42.4752 41.525 42.5252 41.175C42.5752 40.825 42.5502 40.45 42.4502 40.05C40.1502 33.85 38.0502 28.725 36.1502 24.675C34.2502 20.625 32.7502 18.05 31.6502 16.95C30.5502 15.85 29.2752 14.975 27.8252 14.325C26.3752 13.675 24.8502 13.35 23.2502 13.35ZM13.0502 21.3C12.8502 21.3 12.7002 21.25 12.6002 21.15L9.4502 18C9.3502 17.9 9.3002 17.775 9.3002 17.625C9.3002 17.475 9.3502 17.35 9.4502 17.25L17.2502 9.45005C17.3502 9.35005 17.4752 9.30005 17.6252 9.30005C17.7752 9.30005 17.9002 9.35005 18.0002 9.45005L21.1502 12.6C21.2502 12.7 21.3002 12.85 21.3002 13.05C21.3002 13.25 21.2502 13.4 21.1502 13.5C21.0502 13.6 20.9002 13.65 20.7002 13.65C20.5002 13.65 20.3502 13.6 20.2502 13.5L17.5502 10.8L10.8002 17.7L13.5002 20.25C13.7002 20.45 13.7502 20.675 13.6502 20.925C13.5502 21.175 13.3502 21.3 13.0502 21.3ZM15.1502 13.05C14.8502 13.05 14.6502 12.9 14.5502 12.6C14.1502 11.3 13.7252 10.3 13.2752 9.60005C12.8252 8.90005 12.2002 8.30005 11.4002 7.80005C9.8002 6.90005 8.1002 6.45005 6.3002 6.45005C6.3002 8.15005 6.7502 9.80005 7.6502 11.4C7.8502 11.6 7.9002 11.8 7.8002 12C7.7002 12.2 7.5252 12.3 7.2752 12.3C7.0252 12.3 6.8502 12.2 6.7502 12C5.5502 10.1 5.0002 8.00005 5.1002 5.70005C5.1002 5.60005 5.1752 5.47505 5.3252 5.32505C5.4752 5.17505 5.6002 5.10005 5.7002 5.10005C8.0002 5.00005 10.1002 5.55005 12.0002 6.75005C13.0002 7.35005 13.7502 8.07505 14.2502 8.92505C14.7502 9.77505 15.2502 10.9 15.7502 12.3C15.7502 12.5 15.7002 12.65 15.6002 12.75C15.5002 12.85 15.4002 12.95 15.3002 13.05H15.1502ZM10.2002 18C8.3002 17.9 6.8002 17.7 5.7002 17.4C4.0002 16.9 2.5502 16 1.3502 14.7C1.2502 14.6 1.2002 14.45 1.2002 14.25C1.2002 14.05 1.3002 13.9 1.5002 13.8C3.1002 12.4 4.9502 11.5 7.0502 11.1C7.3502 11.1 7.5502 11.2 7.6502 11.4C8.2502 12.2 8.9002 12.825 9.6002 13.275C10.3002 13.725 11.3002 14.15 12.6002 14.55C12.8002 14.65 12.9252 14.8 12.9752 15C13.0252 15.2 12.9752 15.4 12.8252 15.6C12.6752 15.8 12.5002 15.85 12.3002 15.75C11.0002 15.35 9.9252 14.9 9.0752 14.4C8.2252 13.9 7.5002 13.25 6.9002 12.45C5.4002 12.75 4.0002 13.4 2.7002 14.4C3.7002 15.3 4.9002 15.95 6.3002 16.35C7.3002 16.55 8.6002 16.7 10.2002 16.8C10.4002 16.8 10.5502 16.875 10.6502 17.025C10.7502 17.175 10.8002 17.325 10.8002 17.475C10.8002 17.625 10.7252 17.75 10.5752 17.85C10.4252 17.95 10.3002 18 10.2002 18ZM17.4002 10.8C17.3002 10.8 17.1752 10.725 17.0252 10.575C16.8752 10.425 16.8002 10.3 16.8002 10.2C16.7002 8.60005 16.5502 7.30005 16.3502 6.30005C15.9502 4.90005 15.3002 3.70005 14.4002 2.70005C13.3002 4.10005 12.6002 5.65005 12.3002 7.35005C12.3002 7.55005 12.2252 7.67505 12.0752 7.72505C11.9252 7.77505 11.7752 7.80005 11.6252 7.80005C11.4752 7.80005 11.3502 7.72505 11.2502 7.57505C11.1502 7.42505 11.1002 7.30005 11.1002 7.20005C11.5002 5.00005 12.4002 3.10005 13.8002 1.50005C13.9002 1.30005 14.0502 1.20005 14.2502 1.20005C14.4502 1.20005 14.6002 1.25005 14.7002 1.35005C16.0002 2.55005 16.9002 4.00005 17.4002 5.70005C17.7002 6.80005 17.9002 8.25005 18.0002 10.05C18.0002 10.25 17.9502 10.425 17.8502 10.575C17.7502 10.725 17.6002 10.8 17.4002 10.8ZM15.7502 31.95C15.5502 31.95 15.4002 31.85 15.3002 31.65C15.2002 31.45 15.2002 31.25 15.3002 31.05C16.2002 29.45 17.4002 28.2 18.9002 27.3C19.1002 27.2 19.3002 27.225 19.5002 27.375C19.7002 27.525 19.8002 27.7 19.8002 27.9C19.8002 28.1 19.7002 28.25 19.5002 28.35C18.2002 29.15 17.1502 30.25 16.3502 31.65C16.2502 31.85 16.0502 31.95 15.7502 31.95ZM25.3502 37.8C25.0502 37.8 24.8502 37.675 24.7502 37.425C24.6502 37.175 24.6502 36.95 24.7502 36.75C25.6502 35.25 26.8502 34.1 28.3502 33.3C28.5502 33.2 28.7502 33.2 28.9502 33.3C29.1502 33.4 29.2502 33.575 29.2502 33.825C29.2502 34.075 29.1502 34.25 28.9502 34.35C27.6502 35.15 26.6002 36.2 25.8002 37.5C25.7002 37.7 25.5502 37.8 25.3502 37.8ZM35.8502 33.45C35.6502 33.45 35.5002 33.35 35.4002 33.15C35.3002 32.95 35.3002 32.75 35.4002 32.55C36.2002 31.15 37.3002 30 38.7002 29.1C38.9002 28.9 39.1002 28.875 39.3002 29.025C39.5002 29.175 39.6002 29.375 39.6002 29.625C39.6002 29.875 39.5002 30.05 39.3002 30.15C38.1002 30.85 37.1502 31.85 36.4502 33.15C36.3502 33.35 36.1502 33.45 35.8502 33.45ZM30.0002 22.2C29.9002 22.2 29.8002 22.175 29.7002 22.125C29.6002 22.075 29.5252 21.975 29.4752 21.825C29.4252 21.675 29.4502 21.5 29.5502 21.3C30.4502 19.7 31.6502 18.5 33.1502 17.7C33.4502 17.5 33.7002 17.475 33.9002 17.625C34.1002 17.775 34.1752 17.975 34.1252 18.225C34.0752 18.475 33.9502 18.65 33.7502 18.75C32.4502 19.55 31.4002 20.6 30.6002 21.9C30.5002 22.1 30.3002 22.2 30.0002 22.2Z" fill="#404A3D"/>
</svg>
