<svg width="36" height="36" viewBox="0 0 36 36" fill="none" xmlns="http://www.w3.org/2000/svg">
<rect width="36" height="36" rx="18" fill="#EDDD5E"/>
<g clip-path="url(#clip0_1_4359)">
<path d="M2.052 1.188L0.936 2.34L2.412 3.6C4.836 5.616 7.596 7.152 10.692 8.208C11.868 8.616 12.888 8.88 13.752 9C14.688 9.144 16.044 9.228 17.82 9.252C19.068 9.252 20.244 9.228 21.348 9.18C22.5 9.132 23.28 9.06 23.688 8.964C24 8.892 24.18 8.904 24.228 9C24.276 9.096 24.138 9.348 23.814 9.756C23.49 10.164 22.908 10.824 22.068 11.736C21.252 12.576 20.052 13.8 18.468 15.408L12.6 21.312L0 33.912L1.008 34.992L2.088 36L14.688 23.4L20.592 17.532C22.2 15.948 23.424 14.748 24.264 13.932C25.176 13.092 25.836 12.51 26.244 12.186C26.652 11.862 26.904 11.724 27 11.772C27.096 11.82 27.108 12 27.036 12.312C26.94 12.72 26.868 13.5 26.82 14.652C26.772 15.756 26.748 16.932 26.748 18.18C26.772 19.956 26.856 21.312 27 22.248C27.12 23.112 27.384 24.132 27.792 25.308C28.848 28.404 30.384 31.164 32.4 33.588L33.66 35.064L34.812 33.948L36 32.832L35.1 31.86C34.62 31.404 33.852 30.324 32.796 28.62C31.26 26.076 30.3 23.34 29.916 20.412C29.532 17.508 29.73 14.634 30.51 11.79C31.29 8.946 32.616 6.336 34.488 3.96L35.964 2.088L34.992 1.044L33.984 0.0360031L33.012 0.792C31.908 1.632 30.72 2.442 29.448 3.222C28.176 4.002 27.12 4.56 26.28 4.896C24.984 5.4 23.334 5.79 21.33 6.066C19.326 6.342 17.676 6.396 16.38 6.228C14.148 5.964 11.886 5.334 9.594 4.338C7.302 3.342 5.484 2.196 4.14 0.900002L3.168 0L2.052 1.188Z" fill="#5B8C51"/>
</g>
<defs>
<clipPath id="clip0_1_4359">
<rect width="36" height="36" fill="white" transform="matrix(1 0 0 -1 0 36)"/>
</clipPath>
</defs>
</svg>
