<svg width="45" height="45" viewBox="0 0 45 45" fill="none" xmlns="http://www.w3.org/2000/svg">
<path d="M11.2502 16.95C9.6502 16.95 8.3002 16.35 7.2002 15.15C6.3002 14.35 5.2502 12.2 4.0502 8.70005C3.3502 6.80005 2.7002 4.85005 2.1002 2.85005C2.1002 2.65005 2.1752 2.47505 2.3252 2.32505C2.4752 2.17505 2.6502 2.10005 2.8502 2.10005C4.9502 2.70005 6.9002 3.35005 8.7002 4.05005C12.2002 5.25005 14.3752 6.27505 15.2252 7.12505C16.0752 7.97505 16.6002 8.97505 16.8002 10.125C17.0002 11.275 16.8752 12.375 16.4252 13.425C15.9752 14.475 15.2752 15.325 14.3252 15.975C13.3752 16.625 12.3502 16.95 11.2502 16.95ZM3.6002 3.60005C4.3002 5.90005 5.0002 7.95005 5.7002 9.75005C6.7002 12.25 7.5002 13.8 8.1002 14.4C8.9002 15.2 9.9252 15.6 11.1752 15.6C12.4252 15.6 13.4752 15.175 14.3252 14.325C15.1752 13.475 15.6002 12.425 15.6002 11.175C15.6002 9.92505 15.2002 8.90005 14.4002 8.10005C13.8002 7.50005 12.2502 6.70005 9.7502 5.70005C7.9502 5.00005 5.9002 4.30005 3.6002 3.60005ZM21.0002 19.5C19.4002 19.5 18.0502 18.95 16.9502 17.85C15.8502 16.75 15.3002 15.4 15.3002 13.8C15.3002 12.6 16.1002 10.3 17.7002 6.90005C18.5002 5.10005 19.4002 3.30005 20.4002 1.50005C20.6002 1.30005 20.8002 1.20005 21.0002 1.20005C21.2002 1.20005 21.3502 1.30005 21.4502 1.50005C22.4502 3.30005 23.4002 5.10005 24.3002 6.90005C25.9002 10.3 26.7002 12.6 26.7002 13.8C26.7002 15.4 26.1502 16.75 25.0502 17.85C23.9502 18.95 22.6002 19.5 21.0002 19.5ZM21.0002 3.15005C19.9002 5.15005 18.9502 7.05005 18.1502 8.85005C17.0502 11.25 16.5002 12.875 16.5002 13.725C16.5002 14.575 16.7002 15.35 17.1002 16.05C17.5002 16.75 18.0502 17.3 18.7502 17.7C19.4502 18.1 20.2002 18.3 21.0002 18.3C21.8002 18.3 22.5502 18.1 23.2502 17.7C23.9502 17.3 24.5002 16.75 24.9002 16.05C25.3002 15.35 25.5002 14.575 25.5002 13.725C25.5002 12.875 24.9502 11.25 23.8502 8.85005C23.0502 7.05005 22.1002 5.15005 21.0002 3.15005ZM13.8002 26.7C12.6002 26.7 10.3002 25.9 6.9002 24.3C5.1002 23.4 3.3002 22.45 1.5002 21.45C1.3002 21.35 1.2002 21.175 1.2002 20.925C1.2002 20.675 1.3002 20.5 1.5002 20.4C3.3002 19.4 5.1002 18.5 6.9002 17.7C10.3002 16.1 12.5502 15.3 13.6502 15.3C14.7502 15.3 15.7502 15.55 16.6502 16.05C17.5502 16.55 18.2502 17.25 18.7502 18.15C19.2502 19.05 19.5002 20 19.5002 21C19.5002 22 19.2502 22.95 18.7502 23.85C18.2502 24.75 17.5502 25.45 16.6502 25.95C15.7502 26.45 14.8002 26.7 13.8002 26.7ZM3.1502 21C5.1502 22.1 7.0502 23.05 8.8502 23.85C11.2502 24.95 12.8752 25.5 13.7252 25.5C14.5752 25.5 15.3502 25.3 16.0502 24.9C16.7502 24.5 17.3002 23.95 17.7002 23.25C18.1002 22.55 18.3002 21.8 18.3002 21C18.3002 20.2 18.1002 19.45 17.7002 18.75C17.3002 18.05 16.7502 17.5 16.0502 17.1C15.3502 16.7 14.5752 16.5 13.7252 16.5C12.8752 16.5 11.2502 17.05 8.8502 18.15C7.0502 18.95 5.1502 19.9 3.1502 21ZM28.8002 27.3C27.2002 27.3 25.8502 26.75 24.7502 25.65C23.6502 24.55 23.1002 23.2 23.1002 21.6C23.1002 20.4 23.9002 18.1 25.5002 14.7C26.3002 12.9 27.2002 11.1 28.2002 9.30005C28.4002 9.10005 28.6002 9.00005 28.8002 9.00005C29.0002 9.00005 29.1502 9.10005 29.2502 9.30005C30.2502 11.1 31.2002 12.9 32.1002 14.7C33.7002 18.1 34.5002 20.4 34.5002 21.6C34.5002 23.2 33.9502 24.55 32.8502 25.65C31.7502 26.75 30.4002 27.3 28.8002 27.3ZM28.8002 10.95C27.7002 12.95 26.7502 14.85 25.9502 16.65C24.8502 19.05 24.3002 20.7 24.3002 21.6C24.3002 22.8 24.7252 23.85 25.5752 24.75C26.4252 25.65 27.4752 26.1 28.7252 26.1C29.9752 26.1 31.0502 25.65 31.9502 24.75C32.8502 23.85 33.3002 22.8 33.3002 21.6C33.3002 20.7 32.7502 19.05 31.6502 16.65C30.8502 14.85 29.9002 12.95 28.8002 10.95ZM21.6002 34.5C20.4002 34.5 18.1002 33.7 14.7002 32.1C12.9002 31.2 11.1002 30.25 9.3002 29.25C9.1002 29.15 9.0002 28.975 9.0002 28.725C9.0002 28.475 9.1002 28.3 9.3002 28.2C11.1002 27.2 12.9002 26.3 14.7002 25.5C18.1002 23.9 20.4002 23.1 21.6002 23.1C23.2002 23.1 24.5502 23.65 25.6502 24.75C26.7502 25.85 27.3002 27.2 27.3002 28.8C27.3002 30.4 26.7502 31.75 25.6502 32.85C24.5502 33.95 23.2002 34.5 21.6002 34.5ZM10.9502 28.8C12.9502 29.9 14.8502 30.85 16.6502 31.65C19.0502 32.75 20.7002 33.3 21.6002 33.3C22.8002 33.3 23.8502 32.85 24.7502 31.95C25.6502 31.05 26.1002 29.975 26.1002 28.725C26.1002 27.475 25.6502 26.425 24.7502 25.575C23.8502 24.725 22.8002 24.3 21.6002 24.3C20.7002 24.3 19.0502 24.85 16.6502 25.95C14.8502 26.75 12.9502 27.7 10.9502 28.8ZM36.6002 35.1C35.0002 35.1 33.6502 34.55 32.5502 33.45C31.4502 32.35 30.9002 31 30.9002 29.4C30.9002 28.2 31.7002 25.9 33.3002 22.5C34.1002 20.7 35.0002 18.9 36.0002 17.1C36.1002 16.9 36.2752 16.8 36.5252 16.8C36.7752 16.8 36.9502 16.9 37.0502 17.1C38.0502 18.9 39.0002 20.7 39.9002 22.5C41.5002 25.9 42.3002 28.2 42.3002 29.4C42.3002 31 41.7252 32.35 40.5752 33.45C39.4252 34.55 38.1002 35.1 36.6002 35.1ZM36.6002 18.75C35.5002 20.75 34.5502 22.65 33.7502 24.45C32.6502 26.85 32.1002 28.5 32.1002 29.4C32.1002 30.6 32.5252 31.65 33.3752 32.55C34.2252 33.45 35.2752 33.9 36.5252 33.9C37.7752 33.9 38.8502 33.45 39.7502 32.55C40.6502 31.65 41.1002 30.6 41.1002 29.4C41.1002 28.5 40.5502 26.85 39.4502 24.45C38.6502 22.65 37.7002 20.75 36.6002 18.75ZM29.4002 42.3C28.2002 42.3 25.9002 41.5 22.5002 39.9C20.7002 39 18.9002 38.05 17.1002 37.05C16.9002 36.95 16.8002 36.775 16.8002 36.525C16.8002 36.275 16.9002 36.1 17.1002 36C18.9002 35 20.7002 34.1 22.5002 33.3C25.9002 31.7 28.1502 30.9 29.2502 30.9C30.3502 30.9 31.3502 31.15 32.2502 31.65C33.1502 32.15 33.8502 32.85 34.3502 33.75C34.8502 34.65 35.1002 35.6 35.1002 36.6C35.1002 37.6 34.8502 38.55 34.3502 39.45C33.8502 40.35 33.1502 41.05 32.2502 41.55C31.3502 42.05 30.4002 42.3 29.4002 42.3ZM18.7502 36.6C20.7502 37.7 22.6502 38.65 24.4502 39.45C26.8502 40.55 28.4752 41.1 29.3252 41.1C30.1752 41.1 30.9502 40.9 31.6502 40.5C32.3502 40.1 32.9002 39.55 33.3002 38.85C33.7002 38.15 33.9002 37.4 33.9002 36.6C33.9002 35.8 33.7002 35.05 33.3002 34.35C32.9002 33.65 32.3502 33.1 31.6502 32.7C30.9502 32.3 30.1752 32.1 29.3252 32.1C28.4752 32.1 26.8502 32.65 24.4502 33.75C22.6502 34.55 20.7502 35.5 18.7502 36.6ZM43.2002 43.8C43.0002 43.8 42.8502 43.75 42.7502 43.65L32.4002 33.3C32.3002 33.2 32.2502 33.075 32.2502 32.925C32.2502 32.775 32.3252 32.625 32.4752 32.475C32.6252 32.325 32.7752 32.25 32.9252 32.25C33.0752 32.25 33.2002 32.3 33.3002 32.4L43.6502 42.75C43.8502 42.95 43.9002 43.175 43.8002 43.425C43.7002 43.675 43.5002 43.8 43.2002 43.8Z" fill="#404A3D"/>
</svg>
