<svg width="26" height="26" viewBox="0 0 26 26" fill="none" xmlns="http://www.w3.org/2000/svg">
<path d="M12.662 2.41797C13.182 2.31397 13.546 2.47864 13.754 2.91197C13.7887 9.08263 13.806 13.702 13.806 16.77C15.21 15.5566 17.2033 13.7886 19.786 11.466C20.1327 11.31 20.4707 11.31 20.8 11.466C21.1293 11.8126 21.19 12.2113 20.982 12.662C19.9247 13.598 18.3473 15.002 16.25 16.874L13.78 19.084C13.6587 19.2053 13.494 19.3266 13.286 19.448C12.974 19.5 12.7053 19.4653 12.48 19.344L4.96599 12.662C4.75799 12.2113 4.81865 11.8126 5.14799 11.466C5.49465 11.31 5.83265 11.31 6.16199 11.466C8.74465 13.7886 10.738 15.5566 12.142 16.77C12.142 13.702 12.1593 9.08263 12.194 2.91197C12.298 2.68663 12.454 2.52197 12.662 2.41797ZM2.91199 21.918C7.38399 21.9006 14.092 21.9093 23.036 21.944C23.3827 22.0826 23.5473 22.3426 23.53 22.724C23.5473 23.1053 23.3827 23.3653 23.036 23.504C16.328 23.556 9.61999 23.556 2.91199 23.504C2.56532 23.3653 2.40065 23.1053 2.41799 22.724C2.40065 22.3426 2.56532 22.074 2.91199 21.918Z" fill="white"/>
</svg>
