<svg width="20" height="20" viewBox="0 0 20 20" fill="none" xmlns="http://www.w3.org/2000/svg">
<g clip-path="url(#clip0_1_630)">
<path d="M18.2667 2.4001H1.73333C1.24444 2.4001 0.833333 2.56676 0.5 2.9001C0.166667 3.23343 0 3.64454 0 4.13343V15.8668C0 16.3557 0.166667 16.7668 0.5 17.1001C0.833333 17.4334 1.24444 17.6001 1.73333 17.6001H18.2667C18.7556 17.6001 19.1667 17.4334 19.5 17.1001C19.8333 16.7668 20 16.3557 20 15.8668V4.13343C20 3.64454 19.8333 3.23343 19.5 2.9001C19.1667 2.56676 18.7556 2.4001 18.2667 2.4001ZM18 3.53343L10.0667 11.5334L2 3.53343H18ZM1.2 15.6001V4.4001L6.8 10.0001L1.2 15.6001ZM2 16.4668L7.66667 10.8001L9.6 12.7334C9.73333 12.8668 9.87778 12.9334 10.0333 12.9334C10.1889 12.9334 10.3333 12.8668 10.4667 12.7334L12.4 10.8001L18 16.4668H2ZM18.8 15.6001L13.2 10.0001L18.8 4.4001V15.6001Z" fill="#404A3D"/>
</g>
<defs>
<clipPath id="clip0_1_630">
<rect width="20" height="20" fill="white" transform="matrix(1 0 0 -1 0 20)"/>
</clipPath>
</defs>
</svg>
