<svg width="70" height="70" viewBox="0 0 70 70" fill="none" xmlns="http://www.w3.org/2000/svg">
<path d="M60.4329 68.1333H50.1662C49.8551 68.1333 49.6218 68.0555 49.4662 67.9C49.3107 67.7444 49.2329 67.5111 49.2329 67.2V14.2333V13.7666L54.3662 2.3333C54.6773 2.02219 55.0273 1.86663 55.4162 1.86663C55.8051 1.86663 56.0773 2.02219 56.2329 2.3333L61.3662 13.7666L61.5995 14.2333V67.2C61.5995 67.5111 61.4829 67.7444 61.2495 67.9C61.0162 68.0555 60.744 68.1333 60.4329 68.1333ZM51.0995 66.2666H59.4995V14.4666L55.2995 5.1333L51.0995 14.4666V66.2666ZM40.1329 68.1333H29.8662C29.5551 68.1333 29.3218 68.0555 29.1662 67.9C29.0107 67.7444 28.9329 67.5111 28.9329 67.2V14.2333V13.7666L34.0662 2.3333C34.2218 2.02219 34.5329 1.86663 34.9995 1.86663C35.4662 1.86663 35.7773 2.02219 35.9329 2.3333L41.0662 13.7666V14.2333V67.2C41.0662 67.5111 40.9884 67.7444 40.8329 67.9C40.6773 68.0555 40.444 68.1333 40.1329 68.1333ZM30.7995 66.2666H39.1995V14.4666L34.9995 5.1333L30.7995 14.4666V66.2666ZM19.8329 68.1333H9.56621C9.2551 68.1333 8.98288 68.0555 8.74954 67.9C8.51621 67.7444 8.39954 67.5111 8.39954 67.2V14.2333L8.63288 13.7666L13.7662 2.3333C13.9218 2.02219 14.194 1.86663 14.5829 1.86663C14.9718 1.86663 15.3218 2.02219 15.6329 2.3333L20.7662 13.7666V14.2333V67.2C20.7662 67.5111 20.6884 67.7444 20.5329 67.9C20.3773 68.0555 20.144 68.1333 19.8329 68.1333ZM10.4995 66.2666H18.8995V14.4666L14.6995 5.1333L10.4995 14.4666V66.2666ZM50.1662 26.6H40.1329C39.9773 26.6 39.7829 26.4833 39.5495 26.25C39.3162 26.0166 39.1995 25.7833 39.1995 25.55C39.1995 25.3166 39.3162 25.0833 39.5495 24.85C39.7829 24.6166 39.9773 24.5 40.1329 24.5H50.1662C50.4773 24.5 50.7107 24.6166 50.8662 24.85C51.0218 25.0833 51.0995 25.3166 51.0995 25.55C51.0995 25.7833 51.0218 26.0166 50.8662 26.25C50.7107 26.4833 50.4773 26.6 50.1662 26.6ZM50.1662 20.7666H40.1329C39.9773 20.7666 39.7829 20.6889 39.5495 20.5333C39.3162 20.3777 39.1995 20.1444 39.1995 19.8333C39.1995 19.5222 39.3162 19.2889 39.5495 19.1333C39.7829 18.9777 39.9773 18.9 40.1329 18.9H50.1662C50.4773 18.9 50.7107 18.9777 50.8662 19.1333C51.0218 19.2889 51.0995 19.5222 51.0995 19.8333C51.0995 20.1444 51.0218 20.3777 50.8662 20.5333C50.7107 20.6889 50.4773 20.7666 50.1662 20.7666ZM9.56621 26.6H3.73288C3.26621 26.6 2.83843 26.4055 2.44954 26.0166C2.06066 25.6277 1.86621 25.1222 1.86621 24.5V20.7666C1.86621 20.3 2.06066 19.8722 2.44954 19.4833C2.83843 19.0944 3.26621 18.9 3.73288 18.9H9.56621C9.72177 18.9 9.91621 18.9777 10.1495 19.1333C10.3829 19.2889 10.4995 19.5222 10.4995 19.8333C10.4995 20.1444 10.3829 20.3777 10.1495 20.5333C9.91621 20.6889 9.72177 20.7666 9.56621 20.7666H3.73288V24.5H9.56621C9.72177 24.5 9.91621 24.6166 10.1495 24.85C10.3829 25.0833 10.4995 25.3166 10.4995 25.55C10.4995 25.7833 10.3829 26.0166 10.1495 26.25C9.91621 26.4833 9.72177 26.6 9.56621 26.6ZM29.8662 26.6H19.8329C19.5218 26.6 19.2884 26.4833 19.1329 26.25C18.9773 26.0166 18.8995 25.7833 18.8995 25.55C18.8995 25.3166 18.9773 25.0833 19.1329 24.85C19.2884 24.6166 19.5218 24.5 19.8329 24.5H29.8662C30.0218 24.5 30.2162 24.6166 30.4495 24.85C30.6829 25.0833 30.7995 25.3166 30.7995 25.55C30.7995 25.7833 30.6829 26.0166 30.4495 26.25C30.2162 26.4833 30.0218 26.6 29.8662 26.6ZM29.8662 20.7666H19.8329C19.5218 20.7666 19.2884 20.6889 19.1329 20.5333C18.9773 20.3777 18.8995 20.1444 18.8995 19.8333C18.8995 19.5222 18.9773 19.2889 19.1329 19.1333C19.2884 18.9777 19.5218 18.9 19.8329 18.9H29.8662C30.0218 18.9 30.2162 18.9777 30.4495 19.1333C30.6829 19.2889 30.7995 19.5222 30.7995 19.8333C30.7995 20.1444 30.6829 20.3777 30.4495 20.5333C30.2162 20.6889 30.0218 20.7666 29.8662 20.7666ZM66.2662 26.6H60.4329C60.2773 26.6 60.0829 26.4833 59.8495 26.25C59.6162 26.0166 59.4995 25.7833 59.4995 25.55C59.4995 25.3166 59.6162 25.0833 59.8495 24.85C60.0829 24.6166 60.2773 24.5 60.4329 24.5H66.2662V20.7666H60.4329C60.2773 20.7666 60.0829 20.6889 59.8495 20.5333C59.6162 20.3777 59.4995 20.1444 59.4995 19.8333C59.4995 19.5222 59.6162 19.2889 59.8495 19.1333C60.0829 18.9777 60.2773 18.9 60.4329 18.9H66.2662C66.7329 18.9 67.1607 19.0944 67.5495 19.4833C67.9384 19.8722 68.1329 20.3 68.1329 20.7666V24.5C68.1329 25.1222 67.9384 25.6277 67.5495 26.0166C67.1607 26.4055 66.7329 26.6 66.2662 26.6ZM50.1662 42.4666H40.1329C39.9773 42.4666 39.7829 42.3889 39.5495 42.2333C39.3162 42.0777 39.1995 41.8833 39.1995 41.65C39.1995 41.4166 39.3162 41.1833 39.5495 40.95C39.7829 40.7166 39.9773 40.6 40.1329 40.6H50.1662C50.4773 40.6 50.7107 40.7166 50.8662 40.95C51.0218 41.1833 51.0995 41.4166 51.0995 41.65C51.0995 41.8833 51.0218 42.0777 50.8662 42.2333C50.7107 42.3889 50.4773 42.4666 50.1662 42.4666ZM50.1662 36.8666H40.1329C39.9773 36.8666 39.7829 36.7889 39.5495 36.6333C39.3162 36.4777 39.1995 36.2444 39.1995 35.9333C39.1995 35.6222 39.3162 35.3889 39.5495 35.2333C39.7829 35.0777 39.9773 35 40.1329 35H50.1662C50.4773 35 50.7107 35.0777 50.8662 35.2333C51.0218 35.3889 51.0995 35.6222 51.0995 35.9333C51.0995 36.2444 51.0218 36.4777 50.8662 36.6333C50.7107 36.7889 50.4773 36.8666 50.1662 36.8666ZM9.56621 42.4666H3.73288C3.26621 42.4666 2.83843 42.3111 2.44954 42C2.06066 41.6889 1.86621 41.2222 1.86621 40.6V36.8666C1.86621 36.4 2.06066 35.9722 2.44954 35.5833C2.83843 35.1944 3.26621 35 3.73288 35H9.56621C9.72177 35 9.91621 35.0777 10.1495 35.2333C10.3829 35.3889 10.4995 35.6222 10.4995 35.9333C10.4995 36.2444 10.3829 36.4777 10.1495 36.6333C9.91621 36.7889 9.72177 36.8666 9.56621 36.8666H3.73288V40.6H9.56621C9.72177 40.6 9.91621 40.7166 10.1495 40.95C10.3829 41.1833 10.4995 41.4166 10.4995 41.65C10.4995 41.8833 10.3829 42.0777 10.1495 42.2333C9.91621 42.3889 9.72177 42.4666 9.56621 42.4666ZM29.8662 42.4666H19.8329C19.5218 42.4666 19.2884 42.3889 19.1329 42.2333C18.9773 42.0777 18.8995 41.8833 18.8995 41.65C18.8995 41.4166 18.9773 41.1833 19.1329 40.95C19.2884 40.7166 19.5218 40.6 19.8329 40.6H29.8662C30.0218 40.6 30.2162 40.7166 30.4495 40.95C30.6829 41.1833 30.7995 41.4166 30.7995 41.65C30.7995 41.8833 30.6829 42.0777 30.4495 42.2333C30.2162 42.3889 30.0218 42.4666 29.8662 42.4666ZM29.8662 36.8666H19.8329C19.5218 36.8666 19.2884 36.7889 19.1329 36.6333C18.9773 36.4777 18.8995 36.2444 18.8995 35.9333C18.8995 35.6222 18.9773 35.3889 19.1329 35.2333C19.2884 35.0777 19.5218 35 19.8329 35H29.8662C30.0218 35 30.2162 35.0777 30.4495 35.2333C30.6829 35.3889 30.7995 35.6222 30.7995 35.9333C30.7995 36.2444 30.6829 36.4777 30.4495 36.6333C30.2162 36.7889 30.0218 36.8666 29.8662 36.8666ZM66.2662 42.4666H60.4329C60.2773 42.4666 60.0829 42.3889 59.8495 42.2333C59.6162 42.0777 59.4995 41.8833 59.4995 41.65C59.4995 41.4166 59.6162 41.1833 59.8495 40.95C60.0829 40.7166 60.2773 40.6 60.4329 40.6H66.2662V36.8666H60.4329C60.2773 36.8666 60.0829 36.7889 59.8495 36.6333C59.6162 36.4777 59.4995 36.2444 59.4995 35.9333C59.4995 35.6222 59.6162 35.3889 59.8495 35.2333C60.0829 35.0777 60.2773 35 60.4329 35H66.2662C66.7329 35 67.1607 35.1944 67.5495 35.5833C67.9384 35.9722 68.1329 36.4 68.1329 36.8666V40.6C68.1329 41.2222 67.9384 41.6889 67.5495 42C67.1607 42.3111 66.7329 42.4666 66.2662 42.4666ZM50.1662 58.5666H40.1329C39.9773 58.5666 39.7829 58.4889 39.5495 58.3333C39.3162 58.1777 39.1995 57.9833 39.1995 57.75C39.1995 57.5166 39.3162 57.2833 39.5495 57.05C39.7829 56.8166 39.9773 56.7 40.1329 56.7H50.1662C50.4773 56.7 50.7107 56.8166 50.8662 57.05C51.0218 57.2833 51.0995 57.5166 51.0995 57.75C51.0995 57.9833 51.0218 58.1777 50.8662 58.3333C50.7107 58.4889 50.4773 58.5666 50.1662 58.5666ZM50.1662 52.9666H40.1329C39.9773 52.9666 39.7829 52.8889 39.5495 52.7333C39.3162 52.5777 39.1995 52.3444 39.1995 52.0333C39.1995 51.7222 39.3162 51.4889 39.5495 51.3333C39.7829 51.1777 39.9773 51.1 40.1329 51.1H50.1662C50.4773 51.1 50.7107 51.1777 50.8662 51.3333C51.0218 51.4889 51.0995 51.7222 51.0995 52.0333C51.0995 52.3444 51.0218 52.5777 50.8662 52.7333C50.7107 52.8889 50.4773 52.9666 50.1662 52.9666ZM9.56621 58.5666H3.73288C3.26621 58.5666 2.83843 58.4111 2.44954 58.1C2.06066 57.7889 1.86621 57.3222 1.86621 56.7V52.9666C1.86621 52.5 2.06066 52.0722 2.44954 51.6833C2.83843 51.2944 3.26621 51.1 3.73288 51.1H9.56621C9.72177 51.1 9.91621 51.1777 10.1495 51.3333C10.3829 51.4889 10.4995 51.7222 10.4995 52.0333C10.4995 52.3444 10.3829 52.5777 10.1495 52.7333C9.91621 52.8889 9.72177 52.9666 9.56621 52.9666H3.73288V56.7H9.56621C9.72177 56.7 9.91621 56.8166 10.1495 57.05C10.3829 57.2833 10.4995 57.5166 10.4995 57.75C10.4995 57.9833 10.3829 58.1777 10.1495 58.3333C9.91621 58.4889 9.72177 58.5666 9.56621 58.5666ZM29.8662 58.5666H19.8329C19.5218 58.5666 19.2884 58.4889 19.1329 58.3333C18.9773 58.1777 18.8995 57.9833 18.8995 57.75C18.8995 57.5166 18.9773 57.2833 19.1329 57.05C19.2884 56.8166 19.5218 56.7 19.8329 56.7H29.8662C30.0218 56.7 30.2162 56.8166 30.4495 57.05C30.6829 57.2833 30.7995 57.5166 30.7995 57.75C30.7995 57.9833 30.6829 58.1777 30.4495 58.3333C30.2162 58.4889 30.0218 58.5666 29.8662 58.5666ZM29.8662 52.9666H19.8329C19.5218 52.9666 19.2884 52.8889 19.1329 52.7333C18.9773 52.5777 18.8995 52.3444 18.8995 52.0333C18.8995 51.7222 18.9773 51.4889 19.1329 51.3333C19.2884 51.1777 19.5218 51.1 19.8329 51.1H29.8662C30.0218 51.1 30.2162 51.1777 30.4495 51.3333C30.6829 51.4889 30.7995 51.7222 30.7995 52.0333C30.7995 52.3444 30.6829 52.5777 30.4495 52.7333C30.2162 52.8889 30.0218 52.9666 29.8662 52.9666ZM66.2662 58.5666H60.4329C60.2773 58.5666 60.0829 58.4889 59.8495 58.3333C59.6162 58.1777 59.4995 57.9833 59.4995 57.75C59.4995 57.5166 59.6162 57.2833 59.8495 57.05C60.0829 56.8166 60.2773 56.7 60.4329 56.7H66.2662V52.9666H60.4329C60.2773 52.9666 60.0829 52.8889 59.8495 52.7333C59.6162 52.5777 59.4995 52.3444 59.4995 52.0333C59.4995 51.7222 59.6162 51.4889 59.8495 51.3333C60.0829 51.1777 60.2773 51.1 60.4329 51.1H66.2662C66.7329 51.1 67.1607 51.2944 67.5495 51.6833C67.9384 52.0722 68.1329 52.5 68.1329 52.9666V56.7C68.1329 57.3222 67.9384 57.7889 67.5495 58.1C67.1607 58.4111 66.7329 58.5666 66.2662 58.5666Z" fill="#5B8C51"/>
</svg>
