<svg width="45" height="45" viewBox="0 0 45 45" fill="none" xmlns="http://www.w3.org/2000/svg">
<path d="M6.3002 37.8001H3.0002C2.5002 37.8001 2.0752 37.6251 1.7252 37.2751C1.3752 36.9251 1.2002 36.5001 1.2002 36.0001V22.2001C1.2002 21.7001 1.3752 21.2751 1.7252 20.9251C2.0752 20.5751 2.5002 20.4001 3.0002 20.4001H6.3002C6.8002 20.4001 7.2252 20.5751 7.5752 20.9251C7.9252 21.2751 8.1002 21.7001 8.1002 22.2001V36.0001C8.1002 36.5001 7.9252 36.9251 7.5752 37.2751C7.2252 37.6251 6.8002 37.8001 6.3002 37.8001ZM3.0002 21.6001C2.9002 21.6001 2.7752 21.6501 2.6252 21.7501C2.4752 21.8501 2.4002 22.0001 2.4002 22.2001V36.0001C2.4002 36.2001 2.4752 36.3501 2.6252 36.4501C2.7752 36.5501 2.9002 36.6001 3.0002 36.6001H6.3002C6.4002 36.6001 6.5252 36.5501 6.6752 36.4501C6.8252 36.3501 6.9002 36.2001 6.9002 36.0001V22.2001C6.9002 22.0001 6.8252 21.8501 6.6752 21.7501C6.5252 21.6501 6.4002 21.6001 6.3002 21.6001H3.0002ZM27.4502 31.8001H16.8002C16.6002 31.8001 16.4502 31.7001 16.3502 31.5001C16.2502 31.3001 16.2502 31.1001 16.3502 30.9001C16.4502 30.7001 16.6002 30.6001 16.8002 30.6001H27.4502C27.8502 30.6001 28.2252 30.4251 28.5752 30.0751C28.9252 29.7251 29.1002 29.3251 29.1002 28.8751C29.1002 28.4251 28.9252 28.0501 28.5752 27.7501C28.2252 27.4501 27.8502 27.3001 27.4502 27.3001H23.7002C22.3002 27.3001 21.1502 26.7751 20.2502 25.7251C19.3502 24.6751 18.2502 24.1501 16.9502 24.1501H7.5002C7.3002 24.1501 7.1502 24.1001 7.0502 24.0001C6.9502 23.9001 6.9002 23.7501 6.9002 23.5501C6.9002 23.3501 6.9502 23.2001 7.0502 23.1001C7.1502 23.0001 7.3002 22.9501 7.5002 22.9501H16.9502C18.6502 22.9501 20.0502 23.6001 21.1502 24.9001C21.7502 25.6001 22.6002 25.9501 23.7002 25.9501H27.4502C28.2502 25.9501 28.9252 26.2501 29.4752 26.8501C30.0252 27.4501 30.3002 28.1501 30.3002 28.9501C30.3002 29.7501 30.0252 30.4251 29.4752 30.9751C28.9252 31.5251 28.2502 31.8001 27.4502 31.8001ZM22.3502 39.6001C20.8502 39.6001 19.4002 39.3501 18.0002 38.8501L7.2002 34.9501C7.1002 34.8501 7.0252 34.7251 6.9752 34.5751C6.9252 34.4251 6.9252 34.2751 6.9752 34.1251C7.0252 33.9751 7.1252 33.8501 7.2752 33.7501C7.4252 33.6501 7.5502 33.6501 7.6502 33.7501L18.4502 37.6501C19.9502 38.2501 21.4752 38.5001 23.0252 38.4001C24.5752 38.3001 26.1002 37.9001 27.6002 37.2001L42.4502 29.2501C41.7502 28.5501 40.9252 28.1001 39.9752 27.9001C39.0252 27.7001 38.1002 27.8001 37.2002 28.2001L29.2502 31.0501C29.0502 31.1501 28.8502 31.1251 28.6502 30.9751C28.4502 30.8251 28.3752 30.6251 28.4252 30.3751C28.4752 30.1251 28.6002 29.9501 28.8002 29.8501L36.7502 27.0001C37.8502 26.6001 39.0002 26.5251 40.2002 26.7751C41.4002 27.0251 42.4502 27.6001 43.3502 28.5001L43.5002 28.6501C43.7002 28.8501 43.7752 29.1251 43.7252 29.4751C43.6752 29.8251 43.5002 30.0501 43.2002 30.1501L28.0502 38.2501C26.3502 39.1501 24.4502 39.6001 22.3502 39.6001ZM34.5002 28.9501C34.5002 28.9501 34.4502 28.9501 34.3502 28.9501C34.2502 28.9501 34.1502 28.8751 34.0502 28.7251C33.9502 28.5751 33.9002 28.4001 33.9002 28.2001L34.0502 27.4501C34.0502 25.6501 33.4752 24.0751 32.3252 22.7251C31.1752 21.3751 29.7502 20.5001 28.0502 20.1001C26.3502 19.7001 24.7002 19.9001 23.1002 20.7001C21.5002 21.5001 20.3502 22.7001 19.6502 24.3001C19.5502 24.6001 19.4002 24.7501 19.2002 24.7501C19.0002 24.7501 18.8252 24.6501 18.6752 24.4501C18.5252 24.2501 18.5002 24.0501 18.6002 23.8501C19.4002 21.9501 20.7252 20.5501 22.5752 19.6501C24.4252 18.7501 26.3502 18.5001 28.3502 18.9001C30.3502 19.3001 32.0002 20.3001 33.3002 21.9001C34.6002 23.5001 35.2502 25.3501 35.2502 27.4501L35.1002 28.3501C35.1002 28.5501 35.0502 28.7001 34.9502 28.8001C34.8502 28.9001 34.7002 28.9501 34.5002 28.9501ZM26.8502 19.9501C26.8502 19.9501 26.8002 19.9501 26.7002 19.9501C26.6002 19.9501 26.5002 19.8751 26.4002 19.7251C26.3002 19.5751 26.2502 19.4501 26.2502 19.3501C26.5502 14.5501 27.7502 10.9001 29.8502 8.4001C31.0502 7.0001 32.5502 6.0001 34.3502 5.4001C34.5502 5.30009 34.7252 5.30009 34.8752 5.4001C35.0252 5.5001 35.1252 5.6251 35.1752 5.7751C35.2252 5.92509 35.2002 6.0751 35.1002 6.2251C35.0002 6.3751 34.9002 6.5001 34.8002 6.6001C33.2002 7.1001 31.8502 8.0001 30.7502 9.3001C28.8502 11.5001 27.7502 14.8501 27.4502 19.3501C27.4502 19.5501 27.3752 19.7001 27.2252 19.8001C27.0752 19.9001 26.9502 19.9501 26.8502 19.9501ZM23.8502 16.0501C22.9502 16.0501 22.1002 15.9001 21.3002 15.6001C20.2002 15.2001 19.2502 14.5751 18.4502 13.7251C17.6502 12.8751 17.1002 11.9001 16.8002 10.8001C16.6002 10.5001 16.6502 10.2501 16.9502 10.0501C17.9502 9.4501 19.0252 9.1001 20.1752 9.0001C21.3252 8.9001 22.4502 9.0501 23.5502 9.4501C24.6502 9.8501 25.6002 10.4751 26.4002 11.3251C27.2002 12.1751 27.7502 13.1501 28.0502 14.2501C28.1502 14.6501 28.0502 14.9001 27.7502 15.0001C26.5502 15.7001 25.2502 16.0501 23.8502 16.0501ZM18.0002 10.8001C18.7002 12.6001 19.9252 13.8251 21.6752 14.4751C23.4252 15.1251 25.1002 15.0501 26.7002 14.2501C26.1002 12.4501 24.9252 11.2251 23.1752 10.5751C21.4252 9.9251 19.7002 10.0001 18.0002 10.8001ZM33.4502 13.3501C32.4502 13.3501 31.5502 13.1501 30.7502 12.7501C29.9502 12.3501 29.2502 11.8001 28.6502 11.1001C28.4502 10.8001 28.4502 10.5501 28.6502 10.3501C29.2502 9.5501 29.9502 8.9501 30.7502 8.5501C31.5502 8.1501 32.4502 7.9501 33.4502 7.9501C34.3502 7.9501 35.2252 8.1501 36.0752 8.5501C36.9252 8.9501 37.6002 9.5501 38.1002 10.3501C38.4002 10.5501 38.4002 10.8001 38.1002 11.1001C37.6002 11.8001 36.9252 12.3501 36.0752 12.7501C35.2252 13.1501 34.3502 13.3501 33.4502 13.3501ZM30.0002 10.6501C30.9002 11.6501 32.0502 12.1501 33.4502 12.1501C34.7502 12.1501 35.9002 11.6501 36.9002 10.6501C35.9002 9.6501 34.7502 9.1501 33.4502 9.1501C32.0502 9.1501 30.9002 9.6501 30.0002 10.6501Z" fill="#404A3D"/>
</svg>
