<svg width="70" height="70" viewBox="0 0 70 70" fill="none" xmlns="http://www.w3.org/2000/svg">
<path d="M67.1995 56.7H18.8995C16.8773 56.7 15.1662 56 13.7662 54.6C12.3662 53.2 11.6662 51.4888 11.6662 49.4666C11.6662 47.4444 12.3662 45.7333 13.7662 44.3333C15.1662 42.9333 16.8773 42.2333 18.8995 42.2333H60.6662C61.1329 42.2333 61.444 42.4666 61.5995 42.9333L67.8995 55.3C68.0551 55.6111 68.0551 55.9222 67.8995 56.2333C67.744 56.5444 67.5107 56.7 67.1995 56.7ZM18.8995 44.1C17.344 44.1 16.0607 44.6444 15.0495 45.7333C14.0384 46.8222 13.5329 48.1055 13.5329 49.5833C13.5329 51.0611 14.0384 52.3055 15.0495 53.3166C16.0607 54.3277 17.344 54.8333 18.8995 54.8333H65.5662L60.1995 44.1H18.8995ZM18.8995 56.7C16.8773 56.7 15.1662 56 13.7662 54.6C12.3662 53.2 11.6662 51.4888 11.6662 49.4666C11.6662 47.4444 12.3662 45.7333 13.7662 44.3333C15.1662 42.9333 16.8773 42.2333 18.8995 42.2333C20.9218 42.2333 22.6329 42.9333 24.0329 44.3333C25.4329 45.7333 26.1329 47.4444 26.1329 49.4666C26.1329 51.4888 25.4329 53.2 24.0329 54.6C22.6329 56 20.9218 56.7 18.8995 56.7ZM18.8995 44.1C17.344 44.1 16.0607 44.6444 15.0495 45.7333C14.0384 46.8222 13.5329 48.1055 13.5329 49.5833C13.5329 51.0611 14.0384 52.3055 15.0495 53.3166C16.0607 54.3277 17.3051 54.8333 18.7829 54.8333C20.2607 54.8333 21.544 54.3277 22.6329 53.3166C23.7218 52.3055 24.2662 51.0611 24.2662 49.5833C24.2662 48.1055 23.7218 46.8222 22.6329 45.7333C21.544 44.6444 20.2995 44.1 18.8995 44.1ZM18.8995 53.4333C17.8107 53.4333 16.8773 53.0444 16.0995 52.2666C15.3218 51.4888 14.9329 50.5555 14.9329 49.4666C14.9329 48.3777 15.3218 47.4444 16.0995 46.6666C16.8773 45.8888 17.8107 45.5 18.8995 45.5C19.9884 45.5 20.9218 45.8888 21.6995 46.6666C22.4773 47.4444 22.8662 48.3777 22.8662 49.4666C22.8662 50.5555 22.4773 51.4888 21.6995 52.2666C20.9218 53.0444 19.9884 53.4333 18.8995 53.4333ZM18.8995 47.3666C18.2773 47.3666 17.7718 47.6 17.3829 48.0666C16.994 48.5333 16.7995 49.0388 16.7995 49.5833C16.7995 50.1277 16.994 50.5944 17.3829 50.9833C17.7718 51.3722 18.2773 51.5666 18.8995 51.5666C19.5218 51.5666 20.0273 51.3722 20.4162 50.9833C20.8051 50.5944 20.9995 50.1277 20.9995 49.5833C20.9995 49.0388 20.8051 48.5333 20.4162 48.0666C20.0273 47.6 19.5218 47.3666 18.8995 47.3666ZM52.7329 53.4333C51.644 53.4333 50.7107 53.0444 49.9329 52.2666C49.1551 51.4888 48.7662 50.5555 48.7662 49.4666C48.7662 48.3777 49.1551 47.4444 49.9329 46.6666C50.7107 45.8888 51.644 45.5 52.7329 45.5C53.8218 45.5 54.7551 45.8888 55.5329 46.6666C56.3107 47.4444 56.6995 48.3777 56.6995 49.4666C56.6995 50.5555 56.3107 51.4888 55.5329 52.2666C54.7551 53.0444 53.8218 53.4333 52.7329 53.4333ZM52.7329 47.3666C52.1107 47.3666 51.6051 47.6 51.2162 48.0666C50.8273 48.5333 50.6329 49.0388 50.6329 49.5833C50.6329 50.1277 50.8273 50.5944 51.2162 50.9833C51.6051 51.3722 52.1107 51.5666 52.7329 51.5666C53.3551 51.5666 53.8607 51.3722 54.2495 50.9833C54.6384 50.5944 54.8329 50.1277 54.8329 49.5833C54.8329 49.0388 54.6384 48.5333 54.2495 48.0666C53.8607 47.6 53.3551 47.3666 52.7329 47.3666ZM52.7329 56.7C50.7107 56.7 48.9995 56 47.5995 54.6C46.1995 53.2 45.4995 51.4888 45.4995 49.4666C45.4995 47.4444 46.1995 45.7333 47.5995 44.3333C48.9995 42.9333 50.7107 42.2333 52.7329 42.2333C54.7551 42.2333 56.4662 42.9333 57.8662 44.3333C59.2662 45.7333 59.9662 47.4444 59.9662 49.4666C59.9662 51.4888 59.2662 53.2 57.8662 54.6C56.4662 56 54.7551 56.7 52.7329 56.7ZM52.7329 44.1C51.1773 44.1 49.894 44.6444 48.8829 45.7333C47.8718 46.8222 47.3662 48.1055 47.3662 49.5833C47.3662 51.0611 47.8718 52.3055 48.8829 53.3166C49.894 54.3277 51.1384 54.8333 52.6162 54.8333C54.094 54.8333 55.3773 54.3277 56.4662 53.3166C57.5551 52.3055 58.0995 51.0611 58.0995 49.5833C58.0995 48.1055 57.5551 46.8222 56.4662 45.7333C55.3773 44.6444 54.1329 44.1 52.7329 44.1ZM54.3662 44.1H26.8329C26.5218 44.1 26.2884 44.0222 26.1329 43.8666C25.9773 43.7111 25.8995 43.4777 25.8995 43.1666V37.1C25.8995 35.8555 26.2884 34.8444 27.0662 34.0666C27.844 33.2888 28.7773 32.9 29.8662 32.9H51.3329C52.4218 32.9 53.3551 33.2888 54.1329 34.0666C54.9107 34.8444 55.2995 35.8555 55.2995 37.1V43.1666C55.2995 43.4777 55.2218 43.7111 55.0662 43.8666C54.9107 44.0222 54.6773 44.1 54.3662 44.1ZM27.7662 42.2333H53.4329V37.1C53.4329 36.4777 53.1995 35.9333 52.7329 35.4666C52.2662 35 51.7995 34.7666 51.3329 34.7666H29.8662C29.244 34.7666 28.7384 35 28.3495 35.4666C27.9607 35.9333 27.7662 36.4777 27.7662 37.1V42.2333ZM45.2662 34.7666H35.6995C35.3884 34.7666 35.1551 34.6888 34.9995 34.5333C34.844 34.3777 34.7662 34.1444 34.7662 33.8333V31.0333C34.7662 30.2555 35.0384 29.6333 35.5829 29.1666C36.1273 28.7 36.7107 28.4666 37.3329 28.4666H43.6329C44.4107 28.4666 45.0718 28.7 45.6162 29.1666C46.1607 29.6333 46.4329 30.2555 46.4329 31.0333V33.8333C46.4329 34.1444 46.3162 34.3777 46.0829 34.5333C45.8495 34.6888 45.5773 34.7666 45.2662 34.7666ZM36.6329 32.9H44.3329V31.0333C44.3329 30.5666 44.0995 30.3333 43.6329 30.3333H37.3329C36.8662 30.3333 36.6329 30.5666 36.6329 31.0333V32.9ZM23.7995 44.1C23.4884 44.1 23.1773 43.9444 22.8662 43.6333L11.1995 20.5333C11.1995 20.2222 11.044 20.0666 10.7329 20.0666H5.36621C3.96621 20.0666 2.9551 19.5222 2.33288 18.4333C1.71066 17.3444 1.71066 16.2166 2.33288 15.0499C2.9551 13.8833 3.96621 13.2999 5.36621 13.2999H13.9995C14.9329 13.2999 15.6329 13.6888 16.0995 14.4666L27.5329 36.6333C27.6884 36.9444 27.6884 37.2555 27.5329 37.5666C27.3773 37.8777 27.1051 38.0333 26.7162 38.0333C26.3273 38.0333 26.0551 37.8 25.8995 37.3333L14.4662 15.4C14.3107 15.2444 14.1551 15.1666 13.9995 15.1666H5.36621C4.74399 15.1666 4.27732 15.4388 3.96621 15.9833C3.6551 16.5277 3.6551 17.0333 3.96621 17.5C4.27732 17.9666 4.74399 18.2 5.36621 18.2H10.7329C11.8218 18.2 12.5995 18.6666 13.0662 19.6L24.7329 42.9333C24.7329 43.0888 24.694 43.2833 24.6162 43.5166C24.5384 43.75 24.4218 43.9444 24.2662 44.1H23.7995Z" fill="#5B8C51"/>
</svg>
