<svg width="12" height="11" viewBox="0 0 12 11" fill="none" xmlns="http://www.w3.org/2000/svg">
<g clip-path="url(#clip0_1_181)">
<path d="M17.9707 5.63198C17.934 5.41931 17.8314 5.24148 17.6627 5.09848C17.494 4.95548 17.2997 4.88398 17.0797 4.88398C15.723 4.89131 14.4085 5.12965 13.1362 5.59898C11.8639 6.06831 10.707 6.73931 9.66569 7.61198C9.60703 6.84198 9.39436 6.11598 9.02769 5.43398C8.78569 4.97198 8.48503 4.55031 8.12569 4.16898C7.76636 3.78765 7.35936 3.46131 6.90469 3.18998C6.72136 3.07998 6.52886 3.03965 6.32719 3.06898C6.12553 3.09831 5.95136 3.18631 5.80469 3.33298C5.13003 4.05165 4.61669 4.86748 4.26469 5.78048C3.91269 6.69348 3.74403 7.64131 3.75869 8.62398C3.77336 9.57731 3.95853 10.4866 4.31419 11.352C4.66986 12.2173 5.17403 12.9946 5.82669 13.684C5.69469 14.19 5.59936 14.6666 5.54069 15.114C5.53336 15.2093 5.55903 15.2991 5.61769 15.3835C5.67636 15.4678 5.75703 15.5173 5.85969 15.532H5.91469C6.00269 15.532 6.08153 15.5026 6.15119 15.444C6.22086 15.3853 6.25936 15.3083 6.26669 15.213C6.33269 14.707 6.43169 14.212 6.56369 13.728C6.58569 13.706 6.59669 13.6766 6.59669 13.64C6.92669 12.496 7.42903 11.429 8.10369 10.439C8.76369 9.47098 9.56119 8.62765 10.4962 7.90898C11.4312 7.19031 12.4524 6.63298 13.5597 6.23698C14.7037 5.83365 15.8807 5.62465 17.0907 5.60998C17.1274 5.60998 17.1622 5.62465 17.1952 5.65398C17.2282 5.68331 17.2484 5.71631 17.2557 5.75298C17.5197 7.47631 17.527 9.19231 17.2777 10.901L17.2667 10.945C17.01 12.0303 16.5444 13.0148 15.8697 13.8985C15.195 14.7821 14.37 15.488 13.3947 16.016C12.5294 16.4853 11.6127 16.7805 10.6447 16.9015C9.67669 17.0225 8.71969 16.9656 7.77369 16.731C8.48503 16.2543 9.09736 15.7923 9.61069 15.345C11.1654 14.003 12.4414 12.4556 13.4387 10.703C13.49 10.6223 13.5029 10.5325 13.4772 10.4335C13.4515 10.3345 13.3947 10.2593 13.3067 10.208C13.2187 10.1566 13.127 10.1438 13.0317 10.1695C12.9364 10.1951 12.863 10.252 12.8117 10.34C12.0784 11.6086 11.1947 12.7673 10.1607 13.816C9.12669 14.8646 7.98269 15.7666 6.72869 16.522L6.69569 16.533C5.91836 17.0023 5.07503 17.413 4.16569 17.765C4.07769 17.8016 4.01353 17.8658 3.97319 17.9575C3.93286 18.0491 3.93103 18.1426 3.96769 18.238C3.99703 18.3113 4.04103 18.37 4.09969 18.414C4.15836 18.458 4.22803 18.48 4.30869 18.48C4.35269 18.48 4.39669 18.469 4.44069 18.447C5.32803 18.1023 6.16036 17.699 6.93769 17.237C7.81036 17.5376 8.72336 17.688 9.67669 17.688C10.3807 17.688 11.0774 17.6018 11.7667 17.4295C12.456 17.2571 13.1124 17.0023 13.7357 16.665C14.799 16.0856 15.6974 15.3193 16.4307 14.366C17.164 13.4126 17.67 12.3493 17.9487 11.176C17.9707 11.1393 17.9817 11.1063 17.9817 11.077C18.2604 9.25831 18.2567 7.44331 17.9707 5.63198ZM7.43269 10.098C7.41803 9.59931 7.39969 9.23265 7.37769 8.99798C7.31903 8.30865 7.19069 7.50931 6.99269 6.59998C6.97069 6.50465 6.91753 6.42948 6.83319 6.37448C6.74886 6.31948 6.65536 6.30298 6.55269 6.32498C6.45003 6.34698 6.37303 6.40015 6.32169 6.48448C6.27036 6.56881 6.25569 6.65865 6.27769 6.75398C6.46103 7.58998 6.58386 8.36365 6.64619 9.07498C6.70853 9.78631 6.71403 10.5673 6.66269 11.418C6.43536 11.8726 6.23736 12.353 6.06869 12.859C5.34269 11.9936 4.86236 11.0146 4.62769 9.92198C4.39303 8.85131 4.41869 7.78431 4.70469 6.72098C5.00536 5.63565 5.54803 4.67498 6.33269 3.83898C6.35469 3.80965 6.38403 3.79498 6.42069 3.79498C6.45736 3.79498 6.49403 3.80231 6.53069 3.81698C7.31536 4.28631 7.92403 4.91515 8.35669 5.70348C8.78936 6.49181 8.99103 7.34065 8.96169 8.24998C8.38969 8.81465 7.88003 9.43065 7.43269 10.098Z" fill="#5B8C51"/>
</g>
<defs>
<clipPath id="clip0_1_181">
<rect width="11.5" height="11" fill="white" transform="matrix(1 0 0 -1 0 11)"/>
</clipPath>
</defs>
</svg>
