<svg width="45" height="45" viewBox="0 0 45 45" fill="none" xmlns="http://www.w3.org/2000/svg">
<g clip-path="url(#clip0_1_6337)">
<path d="M22.5047 0C19.5054 0 16.731 0.75 14.1816 2.25C11.6321 3.75 9.60757 5.775 8.1079 8.325C6.60823 10.875 5.8584 13.65 5.8584 16.65C5.8584 17.85 6.10834 19.25 6.60823 20.85C6.80819 21.65 7.05813 22.35 7.35807 22.95C7.85795 24.25 8.45782 25.45 9.15767 26.55L20.5551 43.95C21.055 44.65 21.7049 45 22.5047 45C23.3045 45 23.9544 44.65 24.4543 43.95L35.8517 26.55C36.5516 25.45 37.1515 24.25 37.6513 22.95C37.9513 22.35 38.2012 21.65 38.4012 20.85C38.9011 19.25 39.151 17.85 39.151 16.65C39.151 13.65 38.4012 10.875 36.9015 8.325C35.4018 5.775 33.3773 3.75 30.8279 2.25C28.2784 0.75 25.504 0 22.5047 0ZM35.8517 22.2C35.4518 23.4 34.9019 24.5 34.2021 25.5L22.8046 42.75C22.7047 42.95 22.6047 43.05 22.5047 43.05C22.4047 43.05 22.3047 42.95 22.2048 42.75L10.8073 25.5C10.1075 24.5 9.55758 23.4 9.15767 22.2C8.85773 21.7 8.60779 21.1 8.40783 20.4C8.00792 19 7.80797 17.75 7.80797 16.65C7.80797 13.95 8.48282 11.475 9.83252 9.225C11.1822 6.975 12.9568 5.2 15.1563 3.9C17.3558 2.6 19.8053 1.95 22.5047 1.95C25.2041 1.95 27.6536 2.6 29.8531 3.9C32.0526 5.2 33.8272 6.975 35.1769 9.225C36.5266 11.475 37.2014 13.95 37.2014 16.65C37.2014 17.75 37.0015 19 36.6016 20.4C36.3016 21.2 36.0517 21.8 35.8517 22.2ZM22.5047 7.8C20.9051 7.8 19.4304 8.2 18.0807 9C16.731 9.8 15.6562 10.875 14.8564 12.225C14.0566 13.575 13.6567 15.05 13.6567 16.65C13.6567 18.25 14.0566 19.725 14.8564 21.075C15.6562 22.425 16.731 23.475 18.0807 24.225C19.4304 24.975 20.9051 25.35 22.5047 25.35C24.1043 25.35 25.579 24.975 26.9287 24.225C28.2784 23.475 29.3532 22.425 30.153 21.075C30.9528 19.725 31.3527 18.25 31.3527 16.65C31.3527 15.05 30.9528 13.575 30.153 12.225C29.3532 10.875 28.2784 9.8 26.9287 9C25.579 8.2 24.1043 7.8 22.5047 7.8ZM22.5047 23.4C20.6051 23.4 18.9805 22.75 17.6308 21.45C16.2811 20.15 15.6062 18.55 15.6062 16.65C15.6062 14.75 16.2811 13.125 17.6308 11.775C18.9805 10.425 20.6051 9.75 22.5047 9.75C24.4043 9.75 26.0289 10.425 27.3786 11.775C28.7283 13.125 29.4032 14.75 29.4032 16.65C29.4032 18.55 28.7283 20.15 27.3786 21.45C26.0289 22.75 24.4043 23.4 22.5047 23.4Z" fill="#404A3D"/>
</g>
<defs>
<clipPath id="clip0_1_6337">
<rect width="45.01" height="45" fill="white" transform="matrix(1 0 0 -1 0 45)"/>
</clipPath>
</defs>
</svg>
