<svg width="24" height="24" viewBox="0 0 24 24" fill="none" xmlns="http://www.w3.org/2000/svg">
<path d="M6.98392 12.288C6.98392 11.968 6.87992 11.716 6.67192 11.532C6.46392 11.348 6.15992 11.256 5.75992 11.256C5.55192 11.256 5.33592 11.28 5.11192 11.328H5.08792V13.392C5.18392 13.424 5.35992 13.44 5.61592 13.44C6.04792 13.44 6.38392 13.34 6.62392 13.14C6.86392 12.94 6.98392 12.656 6.98392 12.288ZM11.8799 11.28C11.6719 11.28 11.4479 11.304 11.2079 11.352H11.1599V15.936C11.2559 15.968 11.4479 15.984 11.7359 15.984C12.4719 15.984 13.0519 15.776 13.4759 15.36C13.8999 14.944 14.1119 14.328 14.1119 13.512C14.1119 12.792 13.9119 12.24 13.5119 11.856C13.1119 11.472 12.5679 11.28 11.8799 11.28ZM21.2879 8.592H20.7119V5.76C20.7119 5.632 20.6719 5.528 20.5919 5.448L15.9599 0.167999C15.9599 0.167999 15.9559 0.164 15.9479 0.156C15.9399 0.148001 15.9199 0.128 15.8879 0.0960007L15.8639 0.0720005C15.8479 0.0720005 15.8399 0.0639992 15.8399 0.0480003L15.7199 0.0240002C15.6879 0.00799942 15.6479 0 15.5999 0H4.24792C3.99192 0 3.76792 0.0919991 3.57592 0.275999C3.38392 0.459999 3.28792 0.68 3.28792 0.935999V8.592H2.71192C2.34392 8.592 2.02792 8.724 1.76392 8.988C1.49992 9.252 1.36792 9.568 1.36792 9.936V16.92C1.36792 17.288 1.49992 17.604 1.76392 17.868C2.02792 18.132 2.34392 18.264 2.71192 18.264H3.28792V23.064C3.28792 23.32 3.38392 23.54 3.57592 23.724C3.76792 23.908 3.99192 24 4.24792 24H19.7759C20.0319 24 20.2519 23.908 20.4359 23.724C20.6199 23.54 20.7119 23.32 20.7119 23.064V18.264H21.2879C21.6559 18.264 21.9719 18.132 22.2359 17.868C22.4999 17.604 22.6319 17.288 22.6319 16.92V9.936C22.6319 9.568 22.4999 9.252 22.2359 8.988C21.9719 8.724 21.6559 8.592 21.2879 8.592ZM4.24792 0.935999H15.1439V5.76C15.1439 5.888 15.1879 5.996 15.2759 6.084C15.3639 6.172 15.4719 6.216 15.5999 6.216H19.7759V8.592H4.24792V0.935999ZM15.7919 13.464C15.7919 14.104 15.6799 14.672 15.4559 15.168C15.2639 15.632 14.9839 16.016 14.6159 16.32C13.8799 16.912 12.7999 17.208 11.3759 17.208C10.7199 17.208 10.1199 17.176 9.57592 17.112V10.2C10.3439 10.104 11.0599 10.056 11.7239 10.056C12.3879 10.056 12.9479 10.116 13.4039 10.236C13.8599 10.356 14.2559 10.552 14.5919 10.824C15.3919 11.384 15.7919 12.264 15.7919 13.464ZM3.52792 17.136V10.2C4.16792 10.104 4.87992 10.056 5.66392 10.056C6.62392 10.056 7.34392 10.248 7.82392 10.632C8.04792 10.824 8.22792 11.06 8.36392 11.34C8.49992 11.62 8.56792 11.928 8.56792 12.264C8.56792 12.6 8.51192 12.912 8.39992 13.2C8.28792 13.488 8.12792 13.728 7.91992 13.92C7.37592 14.416 6.61592 14.664 5.63992 14.664C5.36792 14.664 5.18392 14.656 5.08792 14.64V17.136H3.52792ZM19.7759 22.8H4.24792V18.264H19.7759V22.8ZM21.1199 11.424H18.4319V13.032H20.9519V14.328H18.4319V17.136H16.8239V10.128H21.1199V11.424Z" fill="#5B8C51"/>
</svg>
