<svg width="20" height="20" viewBox="0 0 20 20" fill="none" xmlns="http://www.w3.org/2000/svg">
<g clip-path="url(#clip0_1_625)">
<path d="M15.8002 12.4C15.4002 11.9556 14.9335 11.7333 14.4002 11.7333C13.8669 11.7333 13.378 11.9556 12.9335 12.4L11.6002 13.7333L10.8669 13.3333C9.62242 12.5333 8.46687 11.4667 7.4002 10.1333C6.86687 9.51111 6.48909 8.91111 6.26687 8.33333L7.6002 7.06667C8.04465 6.62222 8.26687 6.13333 8.26687 5.6C8.26687 5.06667 8.04465 4.57778 7.6002 4.13333L5.26687 1.8C4.82242 1.35555 4.34465 1.13333 3.83353 1.13333C3.32242 1.13333 2.84465 1.35555 2.4002 1.8L0.933535 3.26667C0.400201 3.8 0.0890901 4.44444 0.000201231 5.2C-0.0442432 6.13333 0.155757 7.17778 0.600201 8.33333C1.26687 10.1556 2.33353 11.9556 3.8002 13.7333C5.66687 15.9556 7.86687 17.6667 10.4002 18.8667C11.8224 19.5333 13.0669 19.9111 14.1335 20H14.4002C15.378 20 16.178 19.6444 16.8002 18.9333H16.8669C17.0002 18.7556 17.2224 18.5111 17.5335 18.2L18.1335 17.6C18.578 17.1556 18.8002 16.6667 18.8002 16.1333C18.8002 15.6 18.578 15.1333 18.1335 14.7333L15.8002 12.4ZM17.3335 16.8667L16.8002 17.3333C16.4446 17.6889 16.178 17.9778 16.0002 18.2C15.5558 18.6444 15.0224 18.8667 14.4002 18.8667H14.2002C13.2669 18.8222 12.178 18.4889 10.9335 17.8667C8.53354 16.7111 6.44465 15.0889 4.66687 13C3.28909 11.3111 2.28909 9.62222 1.66687 7.93333C1.26687 6.91111 1.11131 6.02222 1.2002 5.26667C1.24465 4.77778 1.42242 4.37778 1.73353 4.06667L3.2002 2.6C3.42242 2.37778 3.63353 2.26667 3.83353 2.26667C4.03353 2.26667 4.24465 2.37778 4.46687 2.6L6.8002 4.93333C7.2002 5.37778 7.2002 5.8 6.8002 6.2L6.4002 6.6C6.0002 7.04444 5.64465 7.37778 5.33354 7.6V7.66667C5.06687 7.93333 5.0002 8.24444 5.13353 8.6V8.66667C5.4002 9.33333 5.84465 10.0667 6.46687 10.8667C7.62242 12.2889 8.88909 13.4222 10.2669 14.2667L11.2002 14.8C11.378 14.8889 11.5558 14.9333 11.7335 14.9333C11.9113 14.9333 12.0891 14.8222 12.2669 14.6L13.7335 13.2C13.9558 12.9778 14.1669 12.8667 14.3669 12.8667C14.5669 12.8667 14.778 12.9778 15.0002 13.2L17.3335 15.5333C17.7335 15.9333 17.7335 16.3778 17.3335 16.8667ZM10.8002 4.73333C11.9113 4.95555 12.878 5.46667 13.7002 6.26667C14.5224 7.06667 15.0224 8.04444 15.2002 9.2C15.2446 9.33333 15.3224 9.44444 15.4335 9.53333C15.5446 9.62222 15.6669 9.66667 15.8002 9.66667H15.8669C16.0446 9.62222 16.178 9.53333 16.2669 9.4C16.3558 9.26667 16.378 9.13333 16.3335 9C16.1113 7.62222 15.5113 6.44444 14.5335 5.46667C13.5558 4.48889 12.378 3.88889 11.0002 3.66667C10.8669 3.62222 10.7335 3.64444 10.6002 3.73333C10.4669 3.82222 10.3891 3.94444 10.3669 4.1C10.3446 4.25556 10.378 4.4 10.4669 4.53333C10.5558 4.66667 10.6669 4.73333 10.8002 4.73333ZM20.0002 8.8C19.6002 6.57778 18.5891 4.65555 16.9669 3.03333C15.3446 1.41111 13.4002 0.4 11.1335 -1.90735e-06C11.0002 -1.90735e-06 10.8669 0.0444431 10.7335 0.133333C10.6002 0.222221 10.5224 0.344444 10.5002 0.499998C10.478 0.655554 10.5113 0.788887 10.6002 0.9C10.6891 1.01111 10.8224 1.08889 11.0002 1.13333C13.0002 1.48889 14.7224 2.38889 16.1669 3.83333C17.6113 5.27778 18.5113 7 18.8669 9C18.8669 9.13333 18.9224 9.24444 19.0335 9.33333C19.1446 9.42222 19.2669 9.46667 19.4002 9.46667H19.5335C19.6669 9.46667 19.778 9.4 19.8669 9.26667C19.9558 9.13333 20.0002 8.97778 20.0002 8.8Z" fill="#404A3D"/>
</g>
<defs>
<clipPath id="clip0_1_625">
<rect width="20" height="20" fill="white" transform="matrix(1 0 0 -1 0 20)"/>
</clipPath>
</defs>
</svg>
