<svg width="36" height="35" viewBox="0 0 36 35" fill="none" xmlns="http://www.w3.org/2000/svg">
<g clip-path="url(#clip0_1_71)">
<path d="M34.3398 26.985L27.2348 22.26C26.7914 21.9567 26.3014 21.8517 25.7648 21.945C25.2281 22.0383 24.7964 22.295 24.4698 22.715L22.4048 25.375C22.2881 25.5383 22.1189 25.6492 21.8973 25.7075C21.6756 25.7658 21.4714 25.7367 21.2848 25.62L20.7598 25.34C19.8498 24.8267 19.0681 24.325 18.4148 23.835C17.3181 23.0183 16.0814 21.9217 14.7048 20.545C13.3281 19.1683 12.2314 17.9317 11.4148 16.835C10.9248 16.1817 10.4231 15.4 9.90977 14.49L9.62977 13.965C9.5131 13.7783 9.48394 13.5742 9.54227 13.3525C9.6006 13.1308 9.71144 12.9617 9.87477 12.845L12.5348 10.78C12.9548 10.4533 13.2114 10.0217 13.3048 9.485C13.3981 8.94833 13.2931 8.45833 12.9898 8.015L8.26477 0.91C7.9381 0.443333 7.50644 0.151665 6.96977 0.0349998C6.4331 -0.081665 5.93144 0 5.46477 0.279999L2.52477 2.065C1.5681 2.625 0.926436 3.45333 0.59977 4.55C0.203103 6.04333 0.14477 7.65333 0.42477 9.38C0.798103 11.5267 1.69644 13.8017 3.11977 16.205C4.77644 19.005 7.14477 21.945 10.2248 25.025C13.8648 28.665 17.3064 31.3133 20.5498 32.97C23.1864 34.3233 25.6598 35 27.9698 35C28.9498 35 29.8598 34.8833 30.6998 34.65C31.7964 34.3233 32.6248 33.6817 33.1848 32.725L34.9698 29.785C35.2498 29.3183 35.3314 28.8167 35.2148 28.28C35.0981 27.7433 34.8064 27.3117 34.3398 26.985ZM33.9548 29.19L32.1698 32.13C31.7498 32.8533 31.1548 33.32 30.3848 33.53C29.0081 33.9033 27.5148 33.95 25.9048 33.67C23.8981 33.2967 21.7631 32.4217 19.4998 31.045C16.8398 29.435 14.0281 27.1483 11.0648 24.185C6.77144 19.8917 3.90144 15.925 2.45477 12.285C1.3581 9.53167 1.1131 7.05833 1.71977 4.865C1.97644 4.07167 2.4431 3.47667 3.11977 3.08L6.09477 1.295C6.28144 1.17833 6.49144 1.14333 6.72477 1.19C6.9581 1.23667 7.14477 1.365 7.28477 1.575L9.83977 5.425L12.0098 8.645C12.1264 8.83167 12.1673 9.04167 12.1323 9.275C12.0973 9.50833 11.9864 9.695 11.7998 9.835L9.13977 11.9C8.7431 12.2033 8.49227 12.6058 8.38727 13.1075C8.28227 13.6092 8.3581 14.0817 8.61477 14.525L8.82477 14.91C9.3381 15.8667 9.85144 16.695 10.3648 17.395C11.2048 18.5617 12.3714 19.8917 13.8648 21.385C15.3581 22.8783 16.6881 24.045 17.8548 24.885C18.5548 25.3983 19.3831 25.9117 20.3398 26.425L20.7248 26.635C21.1681 26.8917 21.6406 26.9675 22.1423 26.8625C22.6439 26.7575 23.0464 26.5067 23.3498 26.11L25.3798 23.45C25.5431 23.2633 25.7414 23.1525 25.9748 23.1175C26.2081 23.0825 26.4181 23.1233 26.6048 23.24L33.6748 27.965C33.8848 28.105 34.0131 28.2917 34.0598 28.525C34.1064 28.7583 34.0714 28.98 33.9548 29.19ZM20.0948 5.845C21.8914 5.845 23.5598 6.3 25.0998 7.21C26.5931 8.07333 27.7714 9.25167 28.6348 10.745C29.5448 12.285 29.9998 13.9533 29.9998 15.75C29.9998 15.9133 30.0581 16.0533 30.1748 16.17C30.2914 16.2867 30.4314 16.345 30.5948 16.345C30.7581 16.345 30.8923 16.2867 30.9973 16.17C31.1023 16.0533 31.1548 15.9133 31.1548 15.75C31.1548 13.7433 30.6531 11.8767 29.6498 10.15C28.6698 8.49333 27.3398 7.175 25.6598 6.195C23.9564 5.16833 22.1014 4.655 20.0948 4.655C19.9314 4.655 19.7914 4.71333 19.6748 4.83C19.5581 4.94667 19.4998 5.08667 19.4998 5.25C19.4998 5.41333 19.5581 5.55333 19.6748 5.67C19.7914 5.78667 19.9314 5.845 20.0948 5.845ZM20.0948 9.345C21.2614 9.345 22.3348 9.63083 23.3148 10.2025C24.2948 10.7742 25.0706 11.55 25.6423 12.53C26.2139 13.51 26.4998 14.5833 26.4998 15.75C26.4998 15.9133 26.5581 16.0533 26.6748 16.17C26.7914 16.2867 26.9314 16.345 27.0948 16.345C27.2581 16.345 27.3923 16.2867 27.4973 16.17C27.6023 16.0533 27.6548 15.9133 27.6548 15.75C27.6548 14.3733 27.3164 13.1017 26.6398 11.935C25.9631 10.7683 25.0473 9.84667 23.8923 9.17C22.7373 8.49333 21.4714 8.155 20.0948 8.155C19.9314 8.155 19.7914 8.21333 19.6748 8.33C19.5581 8.44667 19.4998 8.58667 19.4998 8.75C19.4998 8.91333 19.5581 9.05333 19.6748 9.17C19.7914 9.28667 19.9314 9.345 20.0948 9.345ZM20.0948 12.845C20.9114 12.845 21.5998 13.125 22.1598 13.685C22.7198 14.245 22.9998 14.9333 22.9998 15.75C22.9998 15.9133 23.0581 16.0533 23.1748 16.17C23.2914 16.2867 23.4314 16.345 23.5948 16.345C23.7581 16.345 23.8923 16.2867 23.9973 16.17C24.1023 16.0533 24.1548 15.9133 24.1548 15.75C24.1548 15.0033 23.9739 14.3208 23.6123 13.7025C23.2506 13.0842 22.7548 12.5883 22.1248 12.215C21.4948 11.8417 20.8181 11.655 20.0948 11.655C19.9314 11.655 19.7914 11.7133 19.6748 11.83C19.5581 11.9467 19.4998 12.0867 19.4998 12.25C19.4998 12.4133 19.5581 12.5533 19.6748 12.67C19.7914 12.7867 19.9314 12.845 20.0948 12.845Z" fill="#EDDD5E"/>
</g>
<defs>
<clipPath id="clip0_1_71">
<rect width="35.5" height="35" fill="white" transform="matrix(1 0 0 -1 0 35)"/>
</clipPath>
</defs>
</svg>
