<svg width="45" height="45" viewBox="0 0 45 45" fill="none" xmlns="http://www.w3.org/2000/svg">
<path d="M40.0502 38.55H4.9502C3.9502 38.55 3.0752 38.175 2.3252 37.425C1.5752 36.675 1.2002 35.8 1.2002 34.8V25.5C1.2002 25.2 1.3002 24.95 1.5002 24.75C1.7002 24.55 1.9002 24.45 2.1002 24.45H5.8502C6.1502 24.45 6.3752 24.55 6.5252 24.75C6.6752 24.95 6.7502 25.2 6.7502 25.5V27.15C6.7502 27.25 6.8002 27.35 6.9002 27.45C7.0002 27.55 7.1502 27.6 7.3502 27.6H13.2002C13.3002 27.6 13.4002 27.55 13.5002 27.45C13.6002 27.35 13.6502 27.25 13.6502 27.15V25.5C13.6502 25.2 13.7502 24.95 13.9502 24.75C14.1502 24.55 14.3502 24.45 14.5502 24.45H18.3002C18.6002 24.45 18.8252 24.55 18.9752 24.75C19.1252 24.95 19.2002 25.2 19.2002 25.5V27.15C19.2002 27.25 19.2502 27.35 19.3502 27.45C19.4502 27.55 19.6002 27.6 19.8002 27.6H25.2002C25.3002 27.6 25.4002 27.55 25.5002 27.45C25.6002 27.35 25.6502 27.25 25.6502 27.15V25.5C25.6502 25.2 25.7502 24.95 25.9502 24.75C26.1502 24.55 26.3502 24.45 26.5502 24.45H30.4502C30.7502 24.45 30.9752 24.55 31.1252 24.75C31.2752 24.95 31.3502 25.2 31.3502 25.5V27.15C31.3502 27.25 31.4002 27.35 31.5002 27.45C31.6002 27.55 31.7502 27.6 31.9502 27.6H37.6502C37.8502 27.6 38.0002 27.55 38.1002 27.45C38.2002 27.35 38.2502 27.25 38.2502 27.15V25.5C38.2502 25.2 38.3252 24.95 38.4752 24.75C38.6252 24.55 38.8502 24.45 39.1502 24.45H42.9002C43.1002 24.45 43.3002 24.55 43.5002 24.75C43.7002 24.95 43.8002 25.2 43.8002 25.5V34.8C43.8002 35.8 43.4252 36.675 42.6752 37.425C41.9252 38.175 41.0502 38.55 40.0502 38.55ZM2.4002 25.65V34.8C2.4002 35.5 2.6502 36.1 3.1502 36.6C3.6502 37.1 4.2502 37.35 4.9502 37.35H40.0502C40.7502 37.35 41.3502 37.1 41.8502 36.6C42.3502 36.1 42.6002 35.5 42.6002 34.8V25.65H39.4502V27.15C39.4502 27.65 39.2752 28.05 38.9252 28.35C38.5752 28.65 38.1502 28.8 37.6502 28.8H31.9502C31.4502 28.8 31.0252 28.65 30.6752 28.35C30.3252 28.05 30.1502 27.65 30.1502 27.15V25.65H26.8502V27.15C26.8502 27.65 26.6752 28.05 26.3252 28.35C25.9752 28.65 25.6002 28.8 25.2002 28.8H19.8002C19.3002 28.8 18.8752 28.65 18.5252 28.35C18.1752 28.05 18.0002 27.65 18.0002 27.15V25.65H14.8502V27.15C14.8502 27.65 14.6752 28.05 14.3252 28.35C13.9752 28.65 13.6002 28.8 13.2002 28.8H7.3502C6.8502 28.8 6.4252 28.65 6.0752 28.35C5.7252 28.05 5.5502 27.65 5.5502 27.15V25.65H2.4002ZM43.2002 33.75H1.8002C1.6002 33.75 1.4502 33.7 1.3502 33.6C1.2502 33.5 1.2002 33.375 1.2002 33.225C1.2002 33.075 1.2502 32.925 1.3502 32.775C1.4502 32.625 1.6002 32.55 1.8002 32.55H43.2002C43.4002 32.55 43.5502 32.625 43.6502 32.775C43.7502 32.925 43.8002 33.075 43.8002 33.225C43.8002 33.375 43.7502 33.5 43.6502 33.6C43.5502 33.7 43.4002 33.75 43.2002 33.75ZM34.6502 28.8C34.4502 28.8 34.3002 28.75 34.2002 28.65C34.1002 28.55 34.0502 28.4 34.0502 28.2V13.05C34.0502 12.95 34.1002 12.825 34.2002 12.675C34.3002 12.525 34.4252 12.45 34.5752 12.45C34.7252 12.45 34.8752 12.525 35.0252 12.675C35.1752 12.825 35.2502 12.95 35.2502 13.05V28.2C35.2502 28.4 35.1752 28.55 35.0252 28.65C34.8752 28.75 34.7502 28.8 34.6502 28.8ZM34.6502 13.65C32.7502 13.65 31.1752 13 29.9252 11.7C28.6752 10.4 28.0002 8.85005 27.9002 7.05005C27.9002 6.85005 27.9752 6.70005 28.1252 6.60005C28.2752 6.50005 28.4502 6.45005 28.6502 6.45005C30.4502 6.45005 32.0002 7.10005 33.3002 8.40005C34.6002 9.70005 35.2502 11.25 35.2502 13.05C35.2502 13.25 35.1752 13.4 35.0252 13.5C34.8752 13.6 34.7502 13.65 34.6502 13.65ZM29.2502 7.65005C29.3502 8.95005 29.8502 10.025 30.7502 10.875C31.6502 11.725 32.7002 12.25 33.9002 12.45C33.8002 11.25 33.3002 10.2 32.4002 9.30005C31.5002 8.40005 30.4502 7.85005 29.2502 7.65005ZM34.6502 21.6C34.4502 21.6 34.3002 21.55 34.2002 21.45C34.1002 21.35 34.0502 21.2 34.0502 21C34.0502 19.2 34.7002 17.65 36.0002 16.35C37.3002 15.05 38.8502 14.4 40.6502 14.4C40.8502 14.4 41.0002 14.45 41.1002 14.55C41.2002 14.65 41.2502 14.8 41.2502 15C41.2502 16.8 40.6002 18.35 39.3002 19.65C38.0002 20.95 36.4502 21.6 34.6502 21.6ZM40.0502 15.6C38.7502 15.8 37.6752 16.325 36.8252 17.175C35.9752 18.025 35.4502 19.1 35.2502 20.4C36.5502 20.2 37.6252 19.675 38.4752 18.825C39.3252 17.975 39.8502 16.9 40.0502 15.6ZM22.5002 28.8C22.3002 28.8 22.1502 28.75 22.0502 28.65C21.9502 28.55 21.9002 28.4 21.9002 28.2V13.05C21.9002 12.95 21.9502 12.825 22.0502 12.675C22.1502 12.525 22.3002 12.45 22.5002 12.45C22.7002 12.45 22.8502 12.525 22.9502 12.675C23.0502 12.825 23.1002 12.95 23.1002 13.05V28.2C23.1002 28.4 23.0502 28.55 22.9502 28.65C22.8502 28.75 22.7002 28.8 22.5002 28.8ZM22.5002 13.65C20.7002 13.65 19.1502 13 17.8502 11.7C16.5502 10.4 15.9002 8.85005 15.9002 7.05005C15.9002 6.85005 15.9502 6.70005 16.0502 6.60005C16.1502 6.50005 16.3002 6.45005 16.5002 6.45005C18.3002 6.45005 19.8502 7.10005 21.1502 8.40005C22.4502 9.70005 23.1002 11.25 23.1002 13.05C23.1002 13.25 23.0502 13.4 22.9502 13.5C22.8502 13.6 22.7002 13.65 22.5002 13.65ZM17.1002 7.65005C17.3002 8.95005 17.8252 10.025 18.6752 10.875C19.5252 11.725 20.6002 12.25 21.9002 12.45C21.7002 11.25 21.1502 10.2 20.2502 9.30005C19.3502 8.40005 18.3002 7.85005 17.1002 7.65005ZM22.5002 21.6C22.3002 21.6 22.1502 21.55 22.0502 21.45C21.9502 21.35 21.9002 21.2 21.9002 21C21.9002 19.2 22.5502 17.65 23.8502 16.35C25.1502 15.05 26.7002 14.4 28.5002 14.4C28.7002 14.4 28.8502 14.45 28.9502 14.55C29.0502 14.65 29.1002 14.8 29.1002 15C29.1002 16.8 28.4502 18.35 27.1502 19.65C25.8502 20.95 24.3002 21.6 22.5002 21.6ZM27.9002 15.6C26.7002 15.8 25.6502 16.325 24.7502 17.175C23.8502 18.025 23.3002 19.1 23.1002 20.4C24.4002 20.2 25.4752 19.675 26.3252 18.825C27.1752 17.975 27.7002 16.9 27.9002 15.6ZM10.3502 28.8C10.2502 28.8 10.1252 28.75 9.9752 28.65C9.8252 28.55 9.7502 28.4 9.7502 28.2V13.05C9.7502 12.95 9.8252 12.825 9.9752 12.675C10.1252 12.525 10.2752 12.45 10.4252 12.45C10.5752 12.45 10.7002 12.525 10.8002 12.675C10.9002 12.825 10.9502 12.95 10.9502 13.05V28.2C10.9502 28.4 10.9002 28.55 10.8002 28.65C10.7002 28.75 10.5502 28.8 10.3502 28.8ZM10.3502 13.65C8.5502 13.65 7.0002 13 5.7002 11.7C4.4002 10.4 3.7502 8.85005 3.7502 7.05005C3.7502 6.85005 3.8002 6.70005 3.9002 6.60005C4.0002 6.50005 4.1502 6.45005 4.3502 6.45005C6.1502 6.45005 7.7002 7.10005 9.0002 8.40005C10.3002 9.70005 10.9502 11.25 10.9502 13.05C10.9502 13.25 10.9002 13.4 10.8002 13.5C10.7002 13.6 10.5502 13.65 10.3502 13.65ZM4.9502 7.65005C5.1502 8.95005 5.6752 10.025 6.5252 10.875C7.3752 11.725 8.4502 12.25 9.7502 12.45C9.5502 11.25 9.0252 10.2 8.1752 9.30005C7.3252 8.40005 6.2502 7.85005 4.9502 7.65005ZM10.3502 21.6C10.2502 21.6 10.1252 21.55 9.9752 21.45C9.8252 21.35 9.7502 21.2 9.7502 21C9.7502 19.2 10.4002 17.65 11.7002 16.35C13.0002 15.05 14.5502 14.4 16.3502 14.4C16.5502 14.4 16.7252 14.45 16.8752 14.55C17.0252 14.65 17.1002 14.8 17.1002 15C17.0002 16.8 16.3252 18.35 15.0752 19.65C13.8252 20.95 12.2502 21.6 10.3502 21.6ZM15.7502 15.6C14.5502 15.8 13.5002 16.325 12.6002 17.175C11.7002 18.025 11.2002 19.1 11.1002 20.4C12.3002 20.2 13.3502 19.675 14.2502 18.825C15.1502 17.975 15.6502 16.9 15.7502 15.6Z" fill="#404A3D"/>
</svg>
