<svg width="45" height="45" viewBox="0 0 45 45" fill="none" xmlns="http://www.w3.org/2000/svg">
<path d="M14.5502 27.45C12.9502 27.55 11.5502 27.05 10.3502 25.95C9.6502 25.35 9.1252 24.575 8.7752 23.625C8.4252 22.675 8.2502 21.7 8.2502 20.7C8.2502 20.4 8.4502 20.2 8.8502 20.1C9.7502 19.9 10.7002 19.925 11.7002 20.175C12.7002 20.425 13.5752 20.875 14.3252 21.525C15.0752 22.175 15.6502 22.975 16.0502 23.925C16.4502 24.875 16.6002 25.85 16.5002 26.85C16.5002 27.15 16.3002 27.325 15.9002 27.375C15.5002 27.425 15.0502 27.45 14.5502 27.45ZM9.4502 21.3C9.4502 22.8 10.0252 24.05 11.1752 25.05C12.3252 26.05 13.7002 26.45 15.3002 26.25C15.3002 24.75 14.7252 23.5 13.5752 22.5C12.4252 21.5 11.0502 21.1 9.4502 21.3ZM21.3002 35.85H19.9502C19.9502 33.35 20.2002 30.7 20.7002 27.9C21.6002 22.3 23.1502 18.2 25.3502 15.6L26.2502 16.5C24.1502 18.9 22.7002 22.85 21.9002 28.35C21.5002 31.05 21.3002 33.55 21.3002 35.85ZM22.0502 27.3L21.0002 26.7C21.9002 25.4 23.0502 24.35 24.4502 23.55C25.8502 22.75 27.3502 22.25 28.9502 22.05L29.1002 23.25C27.7002 23.45 26.3752 23.9 25.1252 24.6C23.8752 25.3 22.8502 26.2 22.0502 27.3ZM31.8002 24C30.7002 24 29.6502 23.75 28.6502 23.25C28.3502 23.15 28.2502 22.95 28.3502 22.65C28.5502 21.65 28.9502 20.75 29.5502 19.95C30.1502 19.15 30.9002 18.525 31.8002 18.075C32.7002 17.625 33.6502 17.4 34.6502 17.4C35.6502 17.4 36.6002 17.65 37.5002 18.15C37.8002 18.35 37.9002 18.6 37.8002 18.9C37.6002 19.9 37.2002 20.8 36.6002 21.6C36.0002 22.4 35.2752 23 34.4252 23.4C33.5752 23.8 32.7002 24 31.8002 24ZM29.7002 22.35C31.1002 22.95 32.5002 22.925 33.9002 22.275C35.3002 21.625 36.1502 20.55 36.4502 19.05C35.0502 18.45 33.6752 18.475 32.3252 19.125C30.9752 19.775 30.1002 20.85 29.7002 22.35ZM17.2502 16.05C17.0502 16.05 16.9002 16 16.8002 15.9C16.0002 15.3 15.3252 14.575 14.7752 13.725C14.2252 12.875 13.9252 11.925 13.8752 10.875C13.8252 9.82505 14.0002 8.85005 14.4002 7.95005C14.8002 7.05005 15.3502 6.30005 16.0502 5.70005C16.3502 5.50005 16.6002 5.50005 16.8002 5.70005C17.7002 6.20005 18.4252 6.90005 18.9752 7.80005C19.5252 8.70005 19.8252 9.65005 19.8752 10.65C19.9252 11.65 19.7502 12.6 19.3502 13.5C18.9502 14.4 18.3502 15.2 17.5502 15.9C17.4502 16 17.3502 16.05 17.2502 16.05ZM16.5002 6.90005C15.5002 8.00005 15.0502 9.32505 15.1502 10.875C15.2502 12.425 15.9002 13.65 17.1002 14.55C18.2002 13.55 18.7002 12.275 18.6002 10.725C18.5002 9.17505 17.8002 7.90005 16.5002 6.90005ZM25.8002 16.65C25.5002 16.65 25.3002 16.55 25.2002 16.35C24.1002 14.05 24.0002 11.95 24.9002 10.05C25.3002 9.25005 25.8502 8.57505 26.5502 8.02505C27.2502 7.47505 28.0502 7.10005 28.9502 6.90005C29.2502 6.80005 29.5002 6.90005 29.7002 7.20005C30.8002 9.50005 30.9002 11.6 30.0002 13.5C29.6002 14.3 29.0502 14.975 28.3502 15.525C27.6502 16.075 26.8502 16.45 25.9502 16.65H25.8002ZM28.8002 8.25005C27.5002 8.65005 26.5502 9.45005 25.9502 10.65C25.2502 12.25 25.3002 13.8 26.1002 15.3C27.4002 15 28.3502 14.2 28.9502 12.9C29.6502 11.3 29.6002 9.75005 28.8002 8.25005ZM22.2002 24.3C22.1002 24.3 22.0002 24.3 21.9002 24.3C20.2002 23.4 18.8502 21.7 17.8502 19.2C17.2502 17.9 16.8502 16.65 16.6502 15.45C16.5502 15.25 16.6002 15.075 16.8002 14.925C17.0002 14.775 17.2002 14.75 17.4002 14.85C17.6002 14.95 17.7502 15.1 17.8502 15.3C18.0502 16.3 18.4002 17.4 18.9002 18.6C19.8002 20.9 21.0002 22.45 22.5002 23.25C22.8002 23.35 22.9002 23.55 22.8002 23.85C22.7002 24.15 22.5002 24.3 22.2002 24.3ZM20.7002 33.6C20.4002 33.6 20.2002 33.45 20.1002 33.15C19.8002 31.55 18.9502 30.1 17.5502 28.8C16.8502 28.1 16.2002 27.6 15.6002 27.3C15.4002 27.2 15.2752 27.075 15.2252 26.925C15.1752 26.775 15.2002 26.625 15.3002 26.475C15.4002 26.325 15.5252 26.225 15.6752 26.175C15.8252 26.125 16.0002 26.15 16.2002 26.25C16.9002 26.65 17.6502 27.2 18.4502 27.9C20.0502 29.4 21.0002 31.05 21.3002 32.85C21.4002 33.05 21.3752 33.225 21.2252 33.375C21.0752 33.525 20.9002 33.6 20.7002 33.6ZM27.0002 31.8C26.0002 31.7 25.1002 31.4 24.3002 30.9C24.0002 30.7 23.9002 30.45 24.0002 30.15C24.2002 29.45 24.5502 28.8 25.0502 28.2C25.5502 27.6 26.1502 27.15 26.8502 26.85C27.5502 26.55 28.3002 26.45 29.1002 26.55C29.9002 26.65 30.6002 26.95 31.2002 27.45C31.5002 27.55 31.6002 27.75 31.5002 28.05C31.3002 28.85 30.9502 29.55 30.4502 30.15C29.9502 30.75 29.3502 31.2 28.6502 31.5C28.1502 31.7 27.6002 31.8 27.0002 31.8ZM25.3502 30.15C26.2502 30.65 27.2002 30.7 28.2002 30.3C29.2002 29.9 29.8502 29.2 30.1502 28.2C29.2502 27.7 28.3002 27.65 27.3002 28.05C26.3002 28.45 25.6502 29.15 25.3502 30.15ZM22.0502 9.15005C21.8502 9.15005 21.7002 9.10005 21.6002 9.00005C21.0002 8.40005 20.5752 7.75005 20.3252 7.05005C20.0752 6.35005 20.0252 5.60005 20.1752 4.80005C20.3252 4.00005 20.6252 3.30005 21.0752 2.70005C21.5252 2.10005 22.1002 1.65005 22.8002 1.35005C23.1002 1.15005 23.3502 1.15005 23.5502 1.35005C24.0502 1.95005 24.4502 2.62505 24.7502 3.37505C25.0502 4.12505 25.1252 4.87505 24.9752 5.62505C24.8252 6.37505 24.5252 7.05005 24.0752 7.65005C23.6252 8.25005 23.0502 8.75005 22.3502 9.15005H22.0502ZM22.9502 2.55005C22.0502 3.15005 21.5252 3.97505 21.3752 5.02505C21.2252 6.07505 21.5002 7.00005 22.2002 7.80005C23.1002 7.20005 23.6252 6.37505 23.7752 5.32505C23.9252 4.27505 23.6502 3.35005 22.9502 2.55005ZM12.7502 18.6C11.9502 18.6 11.2002 18.425 10.5002 18.075C9.8002 17.725 9.2252 17.225 8.7752 16.575C8.3252 15.925 8.0502 15.225 7.9502 14.475C7.8502 13.725 7.9002 13 8.1002 12.3C8.2002 12 8.4002 11.85 8.7002 11.85C9.5002 11.85 10.2502 12.025 10.9502 12.375C11.6502 12.725 12.2252 13.2 12.6752 13.8C13.1252 14.4 13.4002 15.1 13.5002 15.9C13.6002 16.7 13.5502 17.45 13.3502 18.15C13.2502 18.45 13.0502 18.6 12.7502 18.6ZM9.1502 13.05C8.9502 14.05 9.1502 14.975 9.7502 15.825C10.3502 16.675 11.2002 17.15 12.3002 17.25C12.6002 16.25 12.4252 15.325 11.7752 14.475C11.1252 13.625 10.2502 13.15 9.1502 13.05ZM31.0502 43.8H10.3502C9.4502 43.8 8.7002 43.475 8.1002 42.825C7.5002 42.175 7.2002 41.425 7.2002 40.575C7.2002 39.725 7.5002 38.975 8.1002 38.325C8.7002 37.675 9.4502 37.35 10.3502 37.35H11.8502C12.3502 36.35 13.1752 35.75 14.3252 35.55C15.4752 35.35 16.4502 35.65 17.2502 36.45C18.2502 35.45 19.4502 34.95 20.8502 34.95C22.2502 34.95 23.4502 35.55 24.4502 36.75C25.1502 36.25 25.9252 36.05 26.7752 36.15C27.6252 36.25 28.3502 36.65 28.9502 37.35H31.0502C31.9502 37.35 32.7002 37.675 33.3002 38.325C33.9002 38.975 34.2002 39.725 34.2002 40.575C34.2002 41.425 33.9002 42.175 33.3002 42.825C32.7002 43.475 31.9502 43.8 31.0502 43.8ZM10.3502 38.55C9.5502 38.55 8.9752 38.9 8.6252 39.6C8.2752 40.3 8.2752 40.975 8.6252 41.625C8.9752 42.275 9.5502 42.6 10.3502 42.6H31.0502C31.5502 42.6 32.0002 42.4 32.4002 42C32.8002 41.6 33.0002 41.125 33.0002 40.575C33.0002 40.025 32.8002 39.55 32.4002 39.15C32.0002 38.75 31.5502 38.55 31.0502 38.55H28.6502C28.4502 38.55 28.2502 38.5 28.0502 38.4C27.6502 37.7 27.1002 37.35 26.4002 37.35C25.7002 37.35 25.1502 37.6 24.7502 38.1C24.5502 38.2 24.3502 38.25 24.1502 38.25C23.9502 38.25 23.8002 38.15 23.7002 37.95C23.4002 37.45 22.9752 37.05 22.4252 36.75C21.8752 36.45 21.3002 36.275 20.7002 36.225C20.1002 36.175 19.5502 36.3 19.0502 36.6C18.5502 36.9 18.1502 37.3 17.8502 37.8C17.7502 38 17.5752 38.1 17.3252 38.1C17.0752 38.1 16.8752 37.95 16.7252 37.65C16.5752 37.35 16.3002 37.1 15.9002 36.9C15.5002 36.7 15.1002 36.625 14.7002 36.675C14.3002 36.725 13.9252 36.9 13.5752 37.2C13.2252 37.5 13.0002 37.8 12.9002 38.1C12.8002 38.4 12.6002 38.55 12.3002 38.55H10.3502Z" fill="#404A3D"/>
</svg>
