<svg width="16" height="16" viewBox="0 0 16 16" fill="none" xmlns="http://www.w3.org/2000/svg">
<g clip-path="url(#clip0_1_74)">
<path d="M15.904 14.96L11.248 10.304C11.7067 9.74933 12.0587 9.13333 12.304 8.456C12.5493 7.77867 12.672 7.072 12.672 6.336C12.672 5.19467 12.384 4.128 11.808 3.136C11.2427 2.18667 10.4853 1.42933 9.536 0.863999C8.544 0.287999 7.47733 0 6.336 0C5.19467 0 4.128 0.287999 3.136 0.863999C2.18667 1.42933 1.42933 2.18667 0.864 3.136C0.288 4.128 0 5.19467 0 6.336C0 7.47733 0.288 8.544 0.864 9.536C1.42933 10.4853 2.18667 11.2427 3.136 11.808C4.128 12.384 5.19467 12.672 6.336 12.672C7.072 12.672 7.78667 12.544 8.48 12.288C9.152 12.0427 9.76533 11.696 10.32 11.248L14.96 15.904C15.024 15.968 15.1013 16 15.192 16C15.2827 16 15.36 15.968 15.424 15.904L15.904 15.424C15.968 15.36 16 15.2827 16 15.192C16 15.1013 15.968 15.024 15.904 14.96ZM6.336 11.328C5.42933 11.328 4.58667 11.0987 3.808 10.64C3.06133 10.2027 2.464 9.60533 2.016 8.848C1.55733 8.08 1.328 7.24267 1.328 6.336C1.328 5.42933 1.55733 4.58667 2.016 3.808C2.464 3.06133 3.06133 2.464 3.808 2.016C4.58667 1.55733 5.42933 1.328 6.336 1.328C7.24267 1.328 8.08 1.55733 8.848 2.016C9.60533 2.45333 10.2027 3.05067 10.64 3.808C11.0987 4.58667 11.328 5.42933 11.328 6.336C11.328 7.24267 11.0987 8.08533 10.64 8.864C10.2027 9.61067 9.60533 10.208 8.848 10.656C8.08 11.104 7.24267 11.328 6.336 11.328Z" fill="#404A3D"/>
</g>
<defs>
<clipPath id="clip0_1_74">
<rect width="16" height="16" fill="white" transform="matrix(1 0 0 -1 0 16)"/>
</clipPath>
</defs>
</svg>
