<svg width="45" height="45" viewBox="0 0 45 45" fill="none" xmlns="http://www.w3.org/2000/svg">
<path d="M7.5002 38.85H1.8002C1.6002 38.85 1.4502 38.8 1.3502 38.7C1.2502 38.6 1.2002 38.45 1.2002 38.25V21.9C1.2002 21.7 1.2502 21.55 1.3502 21.45C1.4502 21.35 1.6002 21.3 1.8002 21.3H7.5002C7.7002 21.3 7.8502 21.35 7.9502 21.45C8.0502 21.55 8.1002 21.7 8.1002 21.9V38.25C8.1002 38.45 8.0502 38.6 7.9502 38.7C7.8502 38.8 7.7002 38.85 7.5002 38.85ZM2.4002 37.65H6.9002V22.5H2.4002V37.65ZM27.4502 32.7H16.8002C16.6002 32.7 16.4502 32.6 16.3502 32.4C16.2502 32.2 16.2502 32 16.3502 31.8C16.4502 31.6 16.6002 31.5 16.8002 31.5H27.4502C27.8502 31.5 28.2252 31.35 28.5752 31.05C28.9252 30.75 29.1002 30.375 29.1002 29.925C29.1002 29.475 28.9252 29.075 28.5752 28.725C28.2252 28.375 27.8502 28.2 27.4502 28.2H23.7002C22.3002 28.2 21.1502 27.7 20.2502 26.7C19.3502 25.7 18.2502 25.2 16.9502 25.2H7.5002C7.3002 25.2 7.1502 25.125 7.0502 24.975C6.9502 24.825 6.9002 24.675 6.9002 24.525C6.9002 24.375 6.9502 24.25 7.0502 24.15C7.1502 24.05 7.3002 24 7.5002 24H16.9502C18.6502 24 20.0502 24.6 21.1502 25.8C21.7502 26.6 22.6002 27 23.7002 27H27.4502C28.2502 27 28.9252 27.275 29.4752 27.825C30.0252 28.375 30.3002 29.05 30.3002 29.85C30.3002 30.65 30.0252 31.325 29.4752 31.875C28.9252 32.425 28.2502 32.7 27.4502 32.7ZM22.3502 40.65C20.8502 40.65 19.4002 40.35 18.0002 39.75L7.2002 35.85C7.0002 35.75 6.8752 35.6 6.8252 35.4C6.7752 35.2 6.8502 35.025 7.0502 34.875C7.2502 34.725 7.4502 34.7 7.6502 34.8L18.4502 38.7C19.9502 39.2 21.4752 39.425 23.0252 39.375C24.5752 39.325 26.1002 38.9 27.6002 38.1L42.4502 30.3C41.7502 29.6 40.9252 29.15 39.9752 28.95C39.0252 28.75 38.1002 28.8 37.2002 29.1L29.2502 32.1C29.0502 32.1 28.8502 32.025 28.6502 31.875C28.4502 31.725 28.3752 31.55 28.4252 31.35C28.4752 31.15 28.6002 31 28.8002 30.9L36.7502 28.05C37.8502 27.65 39.0002 27.575 40.2002 27.825C41.4002 28.075 42.4502 28.6 43.3502 29.4L43.5002 29.55C43.7002 29.85 43.7752 30.15 43.7252 30.45C43.6752 30.75 43.5002 31 43.2002 31.2L28.0502 39.15C26.3502 40.15 24.4502 40.65 22.3502 40.65ZM25.6502 21.15H25.5002C23.9002 21.05 22.5252 20.6 21.3752 19.8C20.2252 19 19.4002 18.05 18.9002 16.95C18.4002 15.85 18.1502 14.8 18.1502 13.8C18.1502 13.1 18.4002 12.525 18.9002 12.075C19.4002 11.625 19.9752 11.4 20.6252 11.4C21.2752 11.4 21.8502 11.625 22.3502 12.075C22.8502 12.525 23.1002 13.05 23.1002 13.65C23.1002 14.25 23.2502 14.75 23.5502 15.15C24.0502 15.85 24.8002 16.2 25.8002 16.2C26.5002 16.3 27.0752 16.575 27.5252 17.025C27.9752 17.475 28.1752 18.025 28.1252 18.675C28.0752 19.325 27.8252 19.9 27.3752 20.4C26.9252 20.9 26.3502 21.15 25.6502 21.15ZM20.7002 12.6C20.3002 12.6 19.9752 12.725 19.7252 12.975C19.4752 13.225 19.3502 13.5 19.3502 13.8C19.3502 15.2 19.8502 16.45 20.8502 17.55C21.9502 18.95 23.5502 19.75 25.6502 19.95C26.0502 19.95 26.3502 19.825 26.5502 19.575C26.7502 19.325 26.8752 19.025 26.9252 18.675C26.9752 18.325 26.8752 18.025 26.6252 17.775C26.3752 17.525 26.1002 17.4 25.8002 17.4C24.5002 17.4 23.5252 17.025 22.8752 16.275C22.2252 15.525 21.9002 14.7 21.9002 13.8C21.9002 13.5 21.7752 13.225 21.5252 12.975C21.2752 12.725 21.0002 12.6 20.7002 12.6ZM26.8502 10.8C26.3502 10.8 25.9002 10.65 25.5002 10.35C25.1002 10.05 24.8002 9.67502 24.6002 9.22502C24.4002 8.77502 24.3502 8.32502 24.4502 7.87502C24.5502 7.42502 24.8002 7.00002 25.2002 6.60002C26.5002 5.40002 27.8252 4.70002 29.1752 4.50002C30.5252 4.30002 31.7502 4.40002 32.8502 4.80002C33.9502 5.20002 34.9002 5.75002 35.7002 6.45002C36.1002 6.95002 36.3002 7.52502 36.3002 8.17502C36.3002 8.82502 36.0752 9.40002 35.6252 9.90002C35.1752 10.4 34.6252 10.65 33.9752 10.65C33.3252 10.65 32.7752 10.425 32.3252 9.97502C31.8752 9.52502 31.4002 9.30002 30.9002 9.30002C30.1002 9.20002 29.3002 9.50002 28.5002 10.2C28.1002 10.6 27.5502 10.8 26.8502 10.8ZM30.4502 5.55002C28.7502 5.65002 27.3002 6.30002 26.1002 7.50002C25.8002 7.70002 25.6502 7.97502 25.6502 8.32502C25.6502 8.67502 25.7752 8.97502 26.0252 9.22502C26.2752 9.47502 26.5502 9.60002 26.8502 9.60002C27.1502 9.60002 27.4502 9.50002 27.7502 9.30002C28.6502 8.40002 29.6002 7.97502 30.6002 8.02502C31.6002 8.07502 32.4002 8.40002 33.0002 9.00002C33.3002 9.30002 33.6002 9.45002 33.9002 9.45002C34.2002 9.45002 34.4752 9.32502 34.7252 9.07502C34.9752 8.82502 35.1002 8.52502 35.1002 8.17502C35.1002 7.82502 35.0002 7.55002 34.8002 7.35002C33.6002 6.15002 32.1502 5.55002 30.4502 5.55002ZM37.8002 23.55C37.1002 23.55 36.5252 23.3 36.0752 22.8C35.6252 22.3 35.4002 21.75 35.4002 21.15C35.4002 20.55 35.2502 20.05 34.9502 19.65C34.4502 19.05 33.6502 18.7 32.5502 18.6C31.9502 18.6 31.4002 18.35 30.9002 17.85C30.4002 17.35 30.1752 16.775 30.2252 16.125C30.2752 15.475 30.5502 14.9 31.0502 14.4C31.5502 13.9 32.1002 13.7 32.7002 13.8H32.8502C34.5502 13.9 35.9502 14.325 37.0502 15.075C38.1502 15.825 38.9502 16.75 39.4502 17.85C39.9502 18.95 40.2002 20 40.2002 21C40.2002 21.7 39.9752 22.3 39.5252 22.8C39.0752 23.3 38.5002 23.55 37.8002 23.55ZM32.7002 15C32.4002 15 32.1252 15.1 31.8752 15.3C31.6252 15.5 31.5002 15.775 31.5002 16.125C31.5002 16.475 31.6252 16.775 31.8752 17.025C32.1252 17.275 32.4002 17.4 32.7002 17.4C34.0002 17.5 34.9752 17.9 35.6252 18.6C36.2752 19.3 36.6002 20.1 36.6002 21C36.6002 21.4 36.7252 21.7 36.9752 21.9C37.2252 22.1 37.5002 22.2 37.8002 22.2C38.1002 22.2 38.3752 22.1 38.6252 21.9C38.8752 21.7 39.0002 21.4 39.0002 21C39.0002 19.6 38.5502 18.35 37.6502 17.25C36.4502 15.85 34.8502 15.1 32.8502 15H32.7002Z" fill="#404A3D"/>
</svg>
