<svg width="45" height="45" viewBox="0 0 45 45" fill="none" xmlns="http://www.w3.org/2000/svg">
<path d="M11.7001 39.75C9.60006 39.75 7.67506 39.175 5.92506 38.025C4.17506 36.875 2.87506 35.3 2.02506 33.3C1.17506 31.3 0.97506 29.275 1.42506 27.225C1.87506 25.175 2.85006 23.4 4.35006 21.9C5.85006 20.4 7.62506 19.45 9.67506 19.05C11.7251 18.65 13.7251 18.85 15.6751 19.65C17.6251 20.45 19.2001 21.725 20.4001 23.475C21.6001 25.225 22.2001 27.15 22.2001 29.25C22.2001 31.15 21.7251 32.9 20.7751 34.5C19.8251 36.1 18.5501 37.375 16.9501 38.325C15.3501 39.275 13.6001 39.75 11.7001 39.75ZM11.7001 19.95C10.0001 19.95 8.45006 20.375 7.05006 21.225C5.65006 22.075 4.52506 23.2 3.67506 24.6C2.82506 26 2.40006 27.55 2.40006 29.25C2.40006 30.95 2.82506 32.5 3.67506 33.9C4.52506 35.3 5.65006 36.425 7.05006 37.275C8.45006 38.125 10.0001 38.55 11.7001 38.55C13.4001 38.55 14.9501 38.125 16.3501 37.275C17.7501 36.425 18.8751 35.3 19.7251 33.9C20.5751 32.5 21.0001 30.95 21.0001 29.25C21.0001 27.55 20.5751 26 19.7251 24.6C18.8751 23.2 17.7501 22.075 16.3501 21.225C14.9501 20.375 13.4001 19.95 11.7001 19.95ZM11.7001 35.4C10.0001 35.4 8.55006 34.8 7.35006 33.6C6.15006 32.4 5.55006 30.95 5.55006 29.25C5.55006 27.55 6.15006 26.1 7.35006 24.9C8.55006 23.7 10.0001 23.1 11.7001 23.1C13.4001 23.1 14.8501 23.7 16.0501 24.9C17.2501 26.1 17.8501 27.55 17.8501 29.25C17.8501 30.95 17.2501 32.4 16.0501 33.6C14.8501 34.8 13.4001 35.4 11.7001 35.4ZM11.7001 24.3C10.7001 24.3 9.77506 24.575 8.92506 25.125C8.07506 25.675 7.47506 26.425 7.12506 27.375C6.77506 28.325 6.70006 29.3 6.90006 30.3C7.10006 31.3 7.55006 32.15 8.25006 32.85C8.95006 33.55 9.77506 34 10.7251 34.2C11.6751 34.4 12.6251 34.3 13.5751 33.9C14.5251 33.5 15.2751 32.875 15.8251 32.025C16.3751 31.175 16.6501 30.25 16.6501 29.25C16.6501 27.95 16.1751 26.8 15.2251 25.8C14.2751 24.8 13.1001 24.3 11.7001 24.3ZM6.00006 21.9H5.85006C5.75006 21.9 5.62506 21.825 5.47506 21.675C5.32506 21.525 5.30006 21.35 5.40006 21.15L6.60006 5.85C6.60006 5.65 6.67506 5.5 6.82506 5.4C6.97506 5.3 7.12506 5.25 7.27506 5.25C7.42506 5.25 7.55006 5.325 7.65006 5.475C7.75006 5.625 7.80006 5.75 7.80006 5.85L6.60006 21.3C6.60006 21.5 6.52506 21.65 6.37506 21.75C6.22506 21.85 6.10006 21.9 6.00006 21.9ZM30.1501 33.6H20.8501C20.6501 33.6 20.5001 33.55 20.4001 33.45C20.3001 33.35 20.2501 33.2 20.2501 33C20.2501 32.8 20.3001 32.65 20.4001 32.55C20.5001 32.45 20.6501 32.4 20.8501 32.4H30.1501C30.2501 32.4 30.3751 32.45 30.5251 32.55C30.6751 32.65 30.7501 32.8 30.7501 33C30.7501 33.2 30.6751 33.35 30.5251 33.45C30.3751 33.55 30.2501 33.6 30.1501 33.6ZM41.1001 33.6H37.9501C37.7501 33.6 37.6001 33.55 37.5001 33.45C37.4001 33.35 37.3501 33.2 37.3501 33C37.3501 32.8 37.4001 32.65 37.5001 32.55C37.6001 32.45 37.7501 32.4 37.9501 32.4H41.1001L42.6001 21.9C42.6001 21.4 42.4501 20.95 42.1501 20.55C41.8501 20.15 41.4001 19.95 40.8001 19.95H11.7001C11.5001 19.95 11.3251 19.85 11.1751 19.65C11.0251 19.45 11.0251 19.25 11.1751 19.05C11.3251 18.85 11.5001 18.75 11.7001 18.75H40.8001C41.7001 18.75 42.4501 19.1 43.0501 19.8C43.6501 20.5 43.9001 21.25 43.8001 22.05L42.3001 32.55C42.3001 32.85 42.1751 33.1 41.9251 33.3C41.6751 33.5 41.4001 33.6 41.1001 33.6ZM34.0501 39.75C32.6501 39.75 31.4751 39.275 30.5251 38.325C29.5751 37.375 29.1001 36.225 29.1001 34.875C29.1001 33.525 29.5751 32.35 30.5251 31.35C31.4751 30.35 32.6251 29.85 33.9751 29.85C35.3251 29.85 36.4751 30.35 37.4251 31.35C38.3751 32.35 38.8501 33.525 38.8501 34.875C38.8501 36.225 38.3751 37.375 37.4251 38.325C36.4751 39.275 35.3501 39.75 34.0501 39.75ZM34.0501 31.2C32.9501 31.2 32.0501 31.55 31.3501 32.25C30.6501 32.95 30.3001 33.8 30.3001 34.8C30.3001 35.8 30.6501 36.675 31.3501 37.425C32.0501 38.175 32.9251 38.55 33.9751 38.55C35.0251 38.55 35.9001 38.2 36.6001 37.5C37.3001 36.8 37.6501 35.925 37.6501 34.875C37.6501 33.825 37.3001 32.95 36.6001 32.25C35.9001 31.55 35.0501 31.2 34.0501 31.2ZM34.0501 37.35C33.5501 37.35 33.0751 37.2 32.6251 36.9C32.1751 36.6 31.8751 36.225 31.7251 35.775C31.5751 35.325 31.5251 34.85 31.5751 34.35C31.6251 33.85 31.8501 33.425 32.2501 33.075C32.6501 32.725 33.0751 32.5 33.5251 32.4C33.9751 32.3 34.4251 32.35 34.8751 32.55C35.3251 32.75 35.7001 33.05 36.0001 33.45C36.3001 33.85 36.4501 34.35 36.4501 34.95C36.4501 35.55 36.2001 36.1 35.7001 36.6C35.2001 37.1 34.6501 37.35 34.0501 37.35ZM34.0501 33.6C33.4501 33.6 33.0501 33.85 32.8501 34.35C32.6501 34.85 32.7501 35.3 33.1501 35.7C33.5501 36.1 34.0001 36.2 34.5001 36C35.0001 35.8 35.2501 35.475 35.2501 35.025C35.2501 34.575 35.1251 34.225 34.8751 33.975C34.6251 33.725 34.3501 33.6 34.0501 33.6ZM36.9001 23.55H33.3001C33.1001 23.55 32.9501 23.5 32.8501 23.4C32.7501 23.3 32.7001 23.15 32.7001 22.95C32.7001 22.75 32.7501 22.6 32.8501 22.5C32.9501 22.4 33.1001 22.35 33.3001 22.35H36.9001C37.1001 22.35 37.2501 22.4 37.3501 22.5C37.4501 22.6 37.5001 22.75 37.5001 22.95C37.5001 23.15 37.4501 23.3 37.3501 23.4C37.2501 23.5 37.1001 23.55 36.9001 23.55ZM36.9001 26.1H33.3001C33.1001 26.1 32.9251 26 32.7751 25.8C32.6251 25.6 32.6251 25.4 32.7751 25.2C32.9251 25 33.1001 24.9 33.3001 24.9H36.9001C37.1001 24.9 37.2501 24.975 37.3501 25.125C37.4501 25.275 37.5001 25.425 37.5001 25.575C37.5001 25.725 37.4501 25.85 37.3501 25.95C37.2501 26.05 37.1001 26.1 36.9001 26.1ZM23.2501 19.95C22.9501 19.95 22.7501 19.8 22.6501 19.5L20.5501 7.95C20.5501 7.55 20.3751 7.2 20.0251 6.9C19.6751 6.6 19.2501 6.45 18.7501 6.45H4.35006C4.15006 6.45 4.00006 6.4 3.90006 6.3C3.80006 6.2 3.75006 6.05 3.75006 5.85C3.75006 5.65 3.80006 5.5 3.90006 5.4C4.00006 5.3 4.15006 5.25 4.35006 5.25H18.7501C19.5501 5.25 20.2251 5.475 20.7751 5.925C21.3251 6.375 21.6501 6.95 21.7501 7.65L23.8501 19.35C23.9501 19.55 23.9251 19.7 23.7751 19.8C23.6251 19.9 23.4501 19.95 23.2501 19.95ZM34.3501 14.55C34.1501 14.55 34.0001 14.5 33.9001 14.4C33.8001 14.3 33.7501 14.15 33.7501 13.95V13.05C33.7501 12.55 33.5751 12.15 33.2251 11.85C32.8751 11.55 32.5001 11.4 32.1001 11.4C31.9001 11.4 31.7501 11.35 31.6501 11.25C31.5501 11.15 31.5001 11 31.5001 10.8C31.5001 10.6 31.5501 10.45 31.6501 10.35C31.7501 10.25 31.9001 10.2 32.1001 10.2C32.9001 10.2 33.5751 10.475 34.1251 11.025C34.6751 11.575 34.9501 12.25 34.9501 13.05V13.95C34.9501 14.15 34.9001 14.3 34.8001 14.4C34.7001 14.5 34.5501 14.55 34.3501 14.55ZM18.3001 16.2H10.3501C10.1501 16.2 10.0001 16.125 9.90006 15.975C9.80006 15.825 9.75006 15.65 9.75006 15.45L10.3501 9C10.3501 8.8 10.4251 8.65 10.5751 8.55C10.7251 8.45 10.8501 8.4 10.9501 8.4H17.7001C17.8001 8.4 17.9001 8.45 18.0001 8.55C18.1001 8.65 18.2001 8.8 18.3001 9L18.9001 15.45C18.9001 15.65 18.8501 15.825 18.7501 15.975C18.6501 16.125 18.5001 16.2 18.3001 16.2ZM10.9501 14.85H17.5501L17.1001 9.6H11.5501L10.9501 14.85ZM35.7001 19.95H33.0001C32.9001 19.95 32.7751 19.9 32.6251 19.8C32.4751 19.7 32.4001 19.55 32.4001 19.35V13.95C32.4001 13.75 32.4751 13.6 32.6251 13.5C32.7751 13.4 32.9001 13.35 33.0001 13.35H35.7001C35.9001 13.35 36.0501 13.4 36.1501 13.5C36.2501 13.6 36.3001 13.75 36.3001 13.95V19.35C36.3001 19.55 36.2501 19.7 36.1501 19.8C36.0501 19.9 35.9001 19.95 35.7001 19.95ZM33.6001 18.75H35.1001V14.55H33.6001V18.75Z" fill="#404A3D"/>
</svg>
