<svg width="18" height="18" viewBox="0 0 18 18" fill="none" xmlns="http://www.w3.org/2000/svg">
<g clip-path="url(#clip0_1_551)">
<path d="M7.398 8.676C8.586 8.676 9.606 8.25 10.458 7.398C11.31 6.546 11.736 5.523 11.736 4.329C11.736 3.135 11.307 2.115 10.449 1.269C9.591 0.423 8.565 0 7.371 0C6.177 0 5.16 0.432001 4.32 1.296C3.48 2.16 3.06 3.18 3.06 4.356C3.06 5.532 3.48 6.546 4.32 7.398C5.16 8.25 6.186 8.676 7.398 8.676ZM5.076 2.016C5.712 1.38 6.486 1.062 7.398 1.062C8.31 1.062 9.084 1.38 9.72 2.016C10.356 2.652 10.674 3.426 10.674 4.338C10.674 5.25 10.356 6.024 9.72 6.66C9.084 7.296 8.31 7.614 7.398 7.614C6.486 7.614 5.712 7.296 5.076 6.66C4.44 6.024 4.122 5.25 4.122 4.338C4.122 3.426 4.44 2.652 5.076 2.016ZM14.976 13.842C14.964 13.53 14.916 13.152 14.832 12.708C14.76 12.312 14.667 11.934 14.553 11.574C14.439 11.214 14.286 10.854 14.094 10.494C13.866 10.122 13.626 9.816 13.374 9.576C13.11 9.312 12.774 9.096 12.366 8.928C11.982 8.772 11.544 8.694 11.052 8.694C10.956 8.694 10.857 8.715 10.755 8.757C10.653 8.799 10.518 8.88 10.35 9L9.612 9.468C9.348 9.624 9.036 9.762 8.676 9.882C8.256 10.014 7.863 10.08 7.497 10.08C7.131 10.08 6.753 10.017 6.363 9.891C5.973 9.765 5.652 9.624 5.4 9.468C5.1 9.264 4.86 9.105 4.68 8.991C4.5 8.877 4.359 8.799 4.257 8.757C4.155 8.715 4.056 8.694 3.96 8.694C3.48 8.694 3.045 8.772 2.655 8.928C2.265 9.084 1.932 9.294 1.656 9.558C1.38 9.822 1.14 10.134 0.936 10.494C0.732 10.854 0.573 11.205 0.459 11.547C0.345 11.889 0.249 12.279 0.171 12.717C0.093 13.155 0.048 13.53 0.036 13.842C0.012 14.298 0 14.652 0 14.904C0 15.852 0.3 16.605 0.9 17.163C1.5 17.721 2.256 18 3.168 18H11.844C12.78 18 13.542 17.724 14.13 17.172C14.718 16.62 15.012 15.864 15.012 14.904C15.012 14.424 15 14.07 14.976 13.842ZM13.41 16.398C13.038 16.758 12.516 16.938 11.844 16.938H3.168C2.496 16.938 1.977 16.758 1.611 16.398C1.245 16.038 1.062 15.54 1.062 14.904C1.062 14.46 1.074 14.13 1.098 13.914C1.122 13.542 1.164 13.2 1.224 12.888C1.272 12.6 1.35 12.264 1.458 11.88C1.59 11.52 1.722 11.232 1.854 11.016C1.998 10.74 2.169 10.509 2.367 10.323C2.565 10.137 2.79 9.996 3.042 9.9C3.294 9.804 3.57 9.756 3.87 9.756C3.906 9.768 3.978 9.81 4.086 9.882L4.824 10.35C5.16 10.554 5.562 10.734 6.03 10.89C6.498 11.046 6.993 11.124 7.515 11.124C8.037 11.124 8.532 11.046 9 10.89C9.504 10.71 9.9 10.53 10.188 10.35L10.926 9.882C10.998 9.834 11.07 9.792 11.142 9.756C11.442 9.756 11.724 9.804 11.988 9.9C12.252 9.996 12.477 10.137 12.663 10.323C12.849 10.509 13.02 10.74 13.176 11.016C13.344 11.34 13.47 11.628 13.554 11.88C13.662 12.24 13.746 12.576 13.806 12.888C13.878 13.368 13.92 13.71 13.932 13.914C13.956 14.346 13.968 14.676 13.968 14.904C13.968 15.54 13.782 16.038 13.41 16.398Z" fill="#5B8C51"/>
</g>
<defs>
<clipPath id="clip0_1_551">
<rect width="18" height="18" fill="white" transform="matrix(1 0 0 -1 0 18)"/>
</clipPath>
</defs>
</svg>
